<?xml version="1.0" encoding="UTF-8" standalone="no"?>
<!DOCTYPE svg PUBLIC "-//W3C//DTD SVG 1.1//EN" "http://www.w3.org/Graphics/SVG/1.1/DTD/svg11.dtd">
<svg version="1.1" xmlns="http://www.w3.org/2000/svg" xmlns:xlink="http://www.w3.org/1999/xlink" preserveAspectRatio="xMidYMid meet" viewBox="0 0 640 640" width="640" height="640"><defs><path d="M433.23 30.98L412.5 43.97L383.49 55.84L360.69 68.55L339.12 87.75L319.2 110.32L296.79 135.72L270.66 157.46L246.99 192.17L228.72 218.13L205.47 249.73L189.28 275.97L170.56 320.83L160.96 360.59L145.97 409.11L135.95 451.98L130.92 489.21L129.6 530.1L140.74 556.88L161.83 572.37L182.92 587.86L209.84 591.5L233.45 588.37L262.88 573.4L286.94 551.38L308.51 532.19L330.92 506.79L356.24 475.46L379.49 443.86L408.98 397.3L430.57 362.32L449.68 330.15L463.81 303.63L476.29 273.73L492.91 244.39L503.73 211.1L510.42 177.26L515.45 140.03L511.79 104.79L510.2 69.82L494.08 48.69L471.73 42.5L451.86 33.5L428.67 33.52" id="b4w7lhrnvS"></path><path d="M223.09 28.64L243.37 42.33L271.96 55.19L294.31 68.67L315.21 88.58L334.35 111.83L355.88 137.98L381.26 160.59L403.73 196.08L421.1 222.65L443.26 255.03L458.56 281.81L475.74 327.27L483.97 367.34L497.31 416.34L505.85 459.53L509.62 496.91L509.54 537.82L497.5 564.2L475.89 578.96L454.28 593.73L427.26 596.45L403.77 592.52L374.86 576.55L351.57 553.73L330.66 533.81L309.13 507.66L284.89 475.49L262.74 443.12L234.85 395.58L214.46 359.88L196.46 327.08L183.24 300.1L171.79 269.79L156.18 239.9L146.49 206.26L140.96 172.21L137.2 134.83L142.06 99.73L144.85 64.84L161.67 44.27L184.22 38.85L204.38 30.53L227.56 31.34" id="aZfiPwTxv"></path><path d="M26.23 265.31L46.32 255.19L68.77 238.29L89.46 226.47L115.46 218.4L143.84 213.06L175.76 207.05L205.9 196.63L246.69 193.7L277.43 191.09L315.27 187.14L345.42 186.22L393.31 191.47L432.92 201.45L482.59 211.12L525.17 222.13L560.65 234.47L597.9 251.23L617.43 271.33L622.77 294.1L628.1 316.87L620.43 338.92L608.03 355.52L582.62 371.4L553.07 380.13L527.06 388.2L495.14 394.2L456.71 399.85L418.88 403.8L365.08 406L324.88 407.23L288.23 407.79L258.67 407.01L226.74 403.51L193.63 403.4L159.34 397.18L126.23 387.56L90.75 375.22L60.58 357.12L29.83 340.72L17.4 319.28L20.93 299.6L20.92 280.58L30.36 262.95" id="b7BANidZO"></path><path d="M330.16 232.28L304.75 234.39L285.69 249.22L272.99 268.28L264.52 289.45L264.52 312.75L279.34 333.92L298.4 344.51L321.69 344.51L347.1 344.51L366.16 333.92L374.63 312.75L380.98 291.57L378.87 268.28L368.28 249.22L349.22 238.63L328.04 234.39" id="ksEPh7W49"></path></defs><g><g><g><g><use xlink:href="#b4w7lhrnvS" opacity="1" fill-opacity="0" stroke="#008080" stroke-width="20" stroke-opacity="1"></use></g></g><g><g><use xlink:href="#aZfiPwTxv" opacity="1" fill-opacity="0" stroke="#008080" stroke-width="20" stroke-opacity="1"></use></g></g><g><g><use xlink:href="#b7BANidZO" opacity="1" fill-opacity="0" stroke="#008080" stroke-width="20" stroke-opacity="1"></use></g></g><g><g><use xlink:href="#ksEPh7W49" opacity="1" fill-opacity="0" stroke="#008080" stroke-width="20" stroke-opacity="1"></use></g></g></g></g></svg>