<?xml version="1.0" encoding="UTF-8" standalone="no"?>
<!DOCTYPE svg PUBLIC "-//W3C//DTD SVG 1.1//EN" "http://www.w3.org/Graphics/SVG/1.1/DTD/svg11.dtd">
<svg version="1.1" xmlns="http://www.w3.org/2000/svg" xmlns:xlink="http://www.w3.org/1999/xlink" preserveAspectRatio="xMidYMid meet" viewBox="0 0 640 640" width="640" height="640"><defs><path d="M541.2 30.83C541.21 29.09 540.93 27.56 540.54 26.12C541.3 17.61 536.31 8.64 525.42 8.92C387.95 12.53 250.51 7.15 113.05 6.93C101.61 6.91 96.6 16.96 98.01 25.78C97.55 27.32 97.24 28.96 97.26 30.84C99.33 194.88 104.97 430.57 105.15 594.63C105.15 598.32 106.19 601.3 107.86 603.67C108.87 610.62 113.87 616.77 122.91 616.54C182.33 615.07 241.77 614.12 301.14 611.2C354.06 608.61 420 612.09 470.59 594.82C488.49 588.7 504.51 579.66 518.25 566.57C543.35 542.64 551.92 510.52 554.08 476.67C556.15 444.15 552.32 410.05 551.56 380.09C549.61 302.7 545.36 238.92 542.82 161.55C541.53 122.55 540.81 69.86 541.2 30.83ZM441.14 473.35C449.84 496.69 453.81 525.67 440.44 548C424.27 574.99 395.42 574.26 367.99 577.72C351.21 579.84 333.38 578.71 316.47 579.19C303.31 579.56 136.67 583.62 136.67 584.27C136.29 426.36 131.06 196.8 128.95 38.9C255.87 39.45 382.76 43.81 509.67 41.09C509.19 170.74 520.68 358.15 521.36 460.61C501.67 454.4 481.32 451.78 460.31 453.19C458.67 453.29 457.22 453.67 455.84 454.14C446.16 454.19 436.82 461.75 441.14 473.35ZM477.54 484.82C492.89 485.41 508.02 488.37 522.36 494.45C522.41 494.62 522.46 494.81 522.52 494.99C517.87 529.22 496.22 550.23 468.24 562.07C480.98 540.36 484.17 513.71 477.54 484.82Z" id="bZNtitnIq"></path><path d="M238.14 240.11C258.28 237.51 258.54 205.51 238.14 208.15C146.65 219.97 164.98 374.32 254.71 369.15C275.19 367.97 275.31 336 254.71 337.19C206.05 340 188.47 246.53 238.14 240.11Z" id="c1dRj2QtiF"></path><path d="M343.01 234.81C362.76 229.09 354.35 198.25 334.51 203.99C296.79 214.89 286.03 242.84 304.31 276.8C311.76 290.65 321.71 302.99 329.25 316.8C338.24 333.27 324.89 332.99 307.98 334.81C287.71 337 287.5 368.99 307.98 366.77C345.87 362.69 377.19 344.55 358.21 303.36C351.23 288.23 340.15 275.11 331.9 260.67C323.05 245.18 325.59 239.84 343.01 234.81Z" id="b3hTvrOeHL"></path><path d="M428.24 234.81C447.99 229.09 439.59 198.25 419.74 203.99C382.02 214.89 371.27 242.84 389.54 276.8C396.99 290.65 406.95 302.99 414.49 316.8C423.48 333.27 410.12 332.99 393.21 334.81C372.94 337 372.74 368.99 393.21 366.77C431.1 362.69 462.42 344.55 443.44 303.36C436.47 288.23 425.38 275.11 417.13 260.67C408.28 245.18 410.82 239.84 428.24 234.81Z" id="b283GTDF5f"></path></defs><g><g><g><use xlink:href="#bZNtitnIq" opacity="1" fill="#488f84" fill-opacity="1"></use><g><use xlink:href="#bZNtitnIq" opacity="1" fill-opacity="0" stroke="#000000" stroke-width="1" stroke-opacity="0"></use></g></g><g><use xlink:href="#c1dRj2QtiF" opacity="1" fill="#488f84" fill-opacity="1"></use><g><use xlink:href="#c1dRj2QtiF" opacity="1" fill-opacity="0" stroke="#000000" stroke-width="1" stroke-opacity="0"></use></g></g><g><use xlink:href="#b3hTvrOeHL" opacity="1" fill="#488f84" fill-opacity="1"></use><g><use xlink:href="#b3hTvrOeHL" opacity="1" fill-opacity="0" stroke="#000000" stroke-width="1" stroke-opacity="0"></use></g></g><g><use xlink:href="#b283GTDF5f" opacity="1" fill="#488f84" fill-opacity="1"></use><g><use xlink:href="#b283GTDF5f" opacity="1" fill-opacity="0" stroke="#000000" stroke-width="1" stroke-opacity="0"></use></g></g></g></g></svg>