<?xml version="1.0" encoding="UTF-8" standalone="no"?>
<!DOCTYPE svg PUBLIC "-//W3C//DTD SVG 1.1//EN" "http://www.w3.org/Graphics/SVG/1.1/DTD/svg11.dtd">
<svg version="1.1" xmlns="http://www.w3.org/2000/svg" xmlns:xlink="http://www.w3.org/1999/xlink" preserveAspectRatio="xMidYMid meet" viewBox="0 0 640 640" width="640" height="640"><defs><path d="M433.22 359.55C445.76 351.81 466.18 352 478.85 344.38C495.49 340.67 505.54 330.5 517.7 322.43C529.09 313.54 539.9 304.06 551.49 295.42C559.68 281.09 570.37 269.25 573.44 249.79C573.44 245.4 573.44 210.28 573.44 205.89C570.56 186.24 564.8 169.47 559.94 151.81C556.54 149.57 554.24 146.24 553.15 141.7C547.39 137.34 542.34 132.29 537.98 126.53C530.3 123.52 523.39 119.62 519.36 113.02C523.2 111.81 520 103.55 521.09 99.52C524.93 98.24 521.73 90.05 522.75 86.02C527.62 85.76 521.28 74.43 526.14 74.18C524.86 67.2 528.77 65.47 527.87 58.94C530.94 43.71 541.44 21.63 531.26 8.26C529.09 5.89 523.9 6.59 519.42 6.53C517.44 7.36 515.58 8.32 514.37 9.92C507.46 12.61 504 18.69 497.47 21.76C492.99 26.88 485.5 28.93 482.24 35.26C470.66 43.39 462.27 54.66 450.11 62.27C442.37 61.82 439.62 66.43 433.22 67.33C425.98 67.39 420.86 69.57 414.59 70.72C401.79 72.51 389.06 74.43 375.74 75.78C369.92 76.54 366.27 75.14 362.24 74.11C356.93 73.28 358.4 79.3 352.13 77.5C335.36 75.33 311.1 78.91 289.6 77.5C282.88 75.78 275.2 75.01 267.65 74.11C259.01 68.74 251.26 62.4 245.7 53.82C231.62 49.34 221.76 40.64 206.85 36.93C198.21 34.3 197.63 23.62 184.9 25.09C170.56 25.92 169.02 39.62 164.61 50.43C164.99 76.48 161.73 96.9 164.61 121.41C163.97 126.98 159.55 128.7 156.16 131.58C153.15 134.78 151.55 139.39 147.71 141.7C142.66 149.06 139.2 157.95 134.21 165.31C133.38 175.74 130.05 183.68 129.15 194.05C129.15 198.27 129.15 232.06 129.15 236.29C132.54 241.98 130.94 248.77 132.54 254.85C132.74 255.55 135.62 258.94 135.94 259.9C136.83 262.4 137.02 264.96 137.66 266.62C139.33 271.55 140.86 274.75 140.99 278.46C141.06 280.13 142.53 279.55 142.72 280.13C145.92 289.47 147.39 299.07 151.17 307.14C152.7 310.34 155.78 313.79 157.95 317.31C160.77 321.86 161.6 323.2 164.74 325.76C165.31 326.21 164.22 328.58 164.74 329.15C170.62 336.32 179.14 340.03 183.3 347.71C197.44 354.37 209.73 362.94 230.59 362.94C231.87 366.72 240.06 363.58 244.1 364.61C246.53 367.23 252.74 366.14 257.6 366.34C265.92 368.77 275.33 370.05 286.34 369.73C282.5 374.34 278.85 379.14 274.5 383.23C271.3 389.06 263.94 390.72 262.66 398.46C257.34 403.26 259.65 415.74 254.21 420.42C235.33 421.25 218.69 419.9 206.91 413.63C190.59 395.65 183.36 368.45 161.28 356.16C144.38 353.09 127.17 357.44 108.93 357.82C101.82 363.65 92.42 367.23 85.31 372.99C76.74 377.34 66.82 380.42 66.69 393.28C83.97 406.21 98.37 382.59 117.38 381.44C128.45 381.06 135.81 384.45 147.78 383.1C154.94 392.26 160.19 403.33 164.67 415.17C170.56 422.27 176.77 428.99 181.57 437.12C185.79 436.8 186.82 439.74 188.29 442.18C200.26 448.19 213.63 452.86 230.53 454.02C233.06 454.02 253.34 454.02 255.87 454.02C264.64 463.68 266.3 478.02 264.32 492.86C264 495.49 261.89 498.43 260.93 501.31C259.2 506.5 258.5 510.91 257.54 514.82C256.06 520.83 250.43 526.02 250.75 531.71C239.87 539.97 231.04 550.27 211.9 550.34C200.32 550.14 200.45 538.11 186.56 540.16C185.02 533.82 184.19 526.78 174.72 528.32C167.49 531.26 166.59 545.6 169.66 553.66C172.42 562.18 176.58 569.28 179.78 577.28C192.77 587.9 218.69 585.73 242.3 585.73C245.82 582.53 250.37 580.29 255.81 578.94C267.78 564.42 278.21 548.42 289.6 533.31C290.82 525.5 295.17 520.83 296.32 513.02C298.3 507.52 305.02 500.22 309.82 502.91C313.15 527.74 310.85 558.14 311.49 585.66C307.78 591.49 306.24 599.62 303.04 605.95C293.57 605.5 287.42 608.32 282.75 612.74C284.42 622.34 289.98 628.03 296.26 632.96C313.92 634.82 323.65 628.8 333.44 622.85C338.11 612.29 342.53 601.54 345.28 589.06C345.92 567.68 344.9 542.14 345.28 516.42C347.52 506.82 350.34 497.79 350.34 485.95C353.92 477.7 350.59 462.53 355.39 455.55C355.78 466.43 358.08 475.39 357.12 487.62C363.01 526.21 383.94 549.76 395.97 582.21C407.87 593.41 419.52 604.86 441.6 605.82C443.07 603.33 447.04 603.39 450.05 602.43C454.02 596.8 458.24 591.42 456.83 580.48C455.49 580.1 454.85 579.07 455.17 577.09C450.5 567.1 435.97 567.04 428.1 560.19C423.42 545.15 414.21 534.66 407.81 521.34C403.71 508.61 400.38 494.98 394.24 484.16C394.75 475.2 389.89 471.62 390.91 462.21C387.39 461.76 390.46 454.78 387.52 453.76C386.24 448 394.37 451.58 392.58 445.31C399.62 452.29 402.37 463.68 406.08 473.98C417.09 490.62 427.2 508.03 443.26 519.62C456.58 534.53 473.98 545.28 497.34 550.02C499.54 550.02 517.1 550.02 519.3 550.02C519.55 546.88 525.06 548.99 526.08 546.62C527.23 544.38 529.73 543.49 532.86 543.23C539.01 536.96 543.1 528.7 548.03 521.28C551.49 513.41 554.5 495.87 546.37 490.88C525.18 490.5 523.26 509.44 505.79 512.83C474.11 505.54 453.25 480.19 439.94 457.09C438.91 455.42 439.3 453.95 438.21 452.03C428.93 434.94 417.73 417.92 411.14 399.62C406.14 395.58 403.14 389.63 399.3 384.45C396.35 382.91 394.05 380.67 392.58 377.66C389.38 378.94 384.06 373.63 387.58 373.06C406.78 372.48 417.79 363.84 433.22 359.55ZM488.96 114.56C489.02 114.43 488.83 112.9 488.96 112.9C494.98 111.87 489.15 120.38 487.3 117.95C487.36 118.08 488.83 114.75 488.96 114.56ZM470.34 155.14C472.7 146.24 477.95 140.22 480.45 131.52C483.46 131.26 484.03 133.57 487.23 133.18C490.05 148.35 479.55 150.21 477.12 160.19C473.66 159.68 473.79 155.58 470.34 155.14ZM495.74 161.86C498.75 163.39 498.82 167.74 500.8 170.3C501.25 176.38 495.74 176.51 495.74 182.14C492.29 181.7 492.42 177.6 488.96 177.09C488.9 169.73 493.18 166.66 495.74 161.86ZM537.98 251.46C538.82 256.77 535.55 258.05 534.59 261.57C529.6 265.54 529.86 274.88 521.09 275.07C513.22 274.94 523.07 271.23 522.75 268.29C524.29 265.28 526.85 263.36 527.81 259.84C533.12 255.55 536.13 249.02 539.65 243.01C543.23 243.52 539.39 250.37 537.98 251.46ZM531.2 217.66C539.39 219.84 529.98 232.58 526.14 227.78C526.08 222.66 529.73 221.18 531.2 217.66ZM532.93 187.2C526.14 185.47 526.14 177.09 521.09 173.7C521.86 167.74 525.38 164.48 527.87 160.19C532.1 166.34 540.16 179.97 532.93 187.2ZM507.58 259.9C502.14 255.42 508.99 249.02 510.98 246.4C514.43 243.07 516.48 238.4 519.42 234.56C521.47 235.26 522.88 236.74 522.75 239.62C516.86 245.5 511.81 252.35 507.58 259.9ZM514.3 155.14C507.9 154.24 506.88 147.97 505.86 141.63C512.77 140.86 514.69 145.15 517.7 148.35C517.7 151.74 513.09 150.53 514.3 155.14ZM515.97 209.22C510.66 207.81 511.17 200.51 505.79 199.04C507.46 195.58 509.31 192.32 510.91 188.93C516.54 193.02 522.56 202.3 515.97 209.22ZM499.07 210.88C502.85 212.22 503.3 216.77 505.86 219.33C506.69 224.64 501.31 223.81 500.8 227.78C494.59 224.32 500.74 218.94 499.07 210.88ZM502.53 63.94C495.3 64.38 495.17 57.79 490.69 55.49C494.46 50.75 501.25 49.15 504.19 43.65C509.06 49.22 500.93 56.06 502.53 63.94ZM483.9 62.21C483.97 73.73 500.93 74.3 495.74 85.89C487.04 82.75 483.14 74.82 477.12 68.99C476.42 65.41 478.27 64.51 478.85 62.21C479.86 62.21 483.4 62.21 483.9 62.21ZM473.73 85.89C474.3 93.76 483.33 93.18 483.84 101.06C481.54 102.72 480.45 105.6 478.78 107.84C470.21 106.82 470.21 97.34 463.55 94.34C464.32 89.92 468.67 89.22 468.67 84.22C471.42 83.71 471.62 85.82 473.73 85.89ZM465.28 165.25C468.74 166.46 472.19 170.37 468.67 173.7C462.85 174.85 462.59 167.81 465.28 165.25ZM455.17 82.43C452.16 82.94 451.71 80.9 453.5 80.77C454.4 78.14 455.23 80.64 455.17 82.43ZM460.22 111.17C460.22 118.46 468.67 117.38 468.67 124.67C463.36 131.78 460.16 140.93 455.17 148.29C447.62 147.46 443.52 143.04 438.27 139.84C444.22 130.11 449.22 119.3 455.17 109.5C457.92 109.06 458.05 111.1 460.22 111.17ZM424.77 166.98C424.83 161.92 429.18 161.22 429.82 156.8C434.18 156.99 435.71 159.94 438.27 161.86C442.62 162.11 446.98 162.24 446.72 166.98C442.33 166.98 426.96 166.98 424.77 166.98ZM434.88 89.22C441.41 87.74 440.9 93.38 445.06 94.34C442.62 101.44 436.29 104.7 434.88 112.9C428.35 115.97 429.82 126.98 421.38 128.13C414.72 123.14 420.61 115.07 424.77 111.23C426.62 104.64 429.44 99.01 433.22 94.34C432.77 91.58 434.82 91.46 434.88 89.22ZM406.21 112.9C393.22 107.58 401.6 85.38 419.71 90.94C414.91 97.98 410.37 105.22 406.21 112.9ZM414.66 143.23C414.02 153.28 407.49 157.44 409.6 170.3C408.06 169.02 405.76 168.51 402.82 168.64C406.4 162.3 402.62 159.04 399.42 155.14C401.15 148.99 405.06 144.96 407.87 139.9C411.2 139.9 410.05 144.51 414.66 143.23ZM385.92 150.08C382.53 148.48 379.26 146.62 375.81 145.02C378.88 136.32 385.34 130.88 387.65 121.41C392.58 121.47 393.86 125.18 396.03 128.13C394.18 136.96 387.33 140.8 385.92 150.08ZM387.58 94.27C386.75 93.44 388.8 92.16 389.31 92.61C390.21 93.44 388.1 94.72 387.58 94.27ZM369.02 107.84C368.51 105.09 370.62 104.96 370.75 102.78C374.21 103.3 374.02 107.39 377.47 107.84C376.32 113.98 371.07 116.1 369.02 121.34C365.25 124.86 364.93 131.84 358.91 133.18C353.28 129.02 358.46 124.93 360.58 119.68C364.22 116.54 365.06 110.59 369.02 107.84ZM362.24 166.91C362.88 164.67 365.25 164.29 365.63 161.86C370.82 160.64 368.9 166.53 374.08 165.25C373.38 169.02 365.76 165.95 362.24 166.91ZM358.91 92.61C356.8 104 347.14 107.84 343.74 117.95C338.69 117.95 337.98 113.54 333.57 112.9C334.85 105.73 341.44 103.87 340.35 94.34C331.78 93.63 330.43 100.22 325.12 102.78C320.9 103.1 319.87 100.22 318.4 97.73C316.74 95.87 312.13 97.15 313.28 92.61C322.41 92.61 354.35 92.61 358.91 92.61ZM331.84 168.7C335.94 161.47 340.99 155.26 343.68 146.75C346.18 147.58 347.97 149.25 350.46 150.14C346.75 154.11 345.79 163.07 350.46 166.98C347.58 170.88 337.6 167.62 331.84 168.7ZM314.94 143.3C316.22 136.64 321.54 134.14 323.39 128.13C327.3 129.28 327.94 133.7 331.84 134.85C329.22 140.1 326.85 145.6 323.39 150.08C318.46 149.95 317.12 146.24 314.94 143.3ZM299.78 170.3C294.72 166.78 304 163.46 303.1 158.46C307.39 161.6 314.69 161.54 314.94 168.64C310.34 169.66 301.57 166.53 299.78 170.3ZM311.55 116.29C310.14 123.9 302.85 125.57 301.44 133.18C295.87 132.54 294.02 128.26 289.6 126.4C290.5 117.7 298.5 116.1 299.78 107.84C305.15 109.18 307.14 113.98 311.55 116.29ZM259.2 94.27C273.09 90.24 278.08 100.99 291.33 95.94C291.65 101.89 285.63 101.5 284.54 106.11C280.13 107.26 280.96 113.79 276.1 114.56C267.97 112 263.17 106.11 257.47 101.06C257.09 97.86 259.39 97.34 259.14 94.34C255.04 93.63 255.49 97.41 250.69 96C249.02 90.3 256 93.38 259.2 92.61C259.2 92.94 259.2 94.11 259.2 94.27ZM274.43 173.7C269.5 172.42 264.7 171.01 262.59 166.91C265.22 156.54 272.9 151.3 276.1 141.57C282.62 140.67 283.07 145.92 287.94 146.69C285.57 157.82 275.01 160.83 274.43 173.7ZM245.63 118.02C244.8 117.06 246.91 115.78 247.36 116.29C248.26 117.18 246.14 118.46 245.63 118.02ZM262.59 129.79C257.92 140.29 249.54 147.14 245.7 158.53C238.78 155.9 233.02 152.06 227.14 148.42C231.17 135.04 245.63 132.03 250.75 119.68C254.46 123.33 260.16 124.93 262.59 129.79ZM220.35 195.71C213.7 194.43 211.14 189.12 205.12 187.26C207.3 177.6 213.63 172.1 216.96 163.65C226.82 163.9 229.5 171.33 237.25 173.76C235.39 178.11 233.15 182.02 233.86 188.93C228.22 190.02 225.6 194.18 220.35 195.71ZM186.56 173.7C189.31 163.52 195.33 156.61 200.06 148.35C202.3 148.93 202.75 151.36 205.12 151.74C203.97 157.89 198.72 160 196.67 165.25C193.54 168.19 191.55 177.86 186.56 173.7ZM208.45 136.51C207.62 135.68 209.73 134.4 210.18 134.85C211.07 135.74 208.96 136.96 208.45 136.51ZM230.53 80.83C234.5 76.35 239.3 85.44 244.03 85.89C239.49 90.88 234.69 81.79 230.53 80.83ZM211.84 128.13C208.38 127.62 208.51 123.52 205.12 123.07C208.83 111.04 216.06 102.46 222.02 92.67C226.5 93.76 225.6 100.29 230.46 101.06C225.47 111.3 216.19 117.25 211.84 128.13ZM193.28 58.82C201.28 63.23 210.82 66.05 218.62 70.66C215.17 72.26 213.95 76.1 211.84 79.1C212.74 85.06 205.82 83.26 206.78 89.22C201.28 93.82 198.02 100.74 194.94 107.84C191.1 103.3 194.43 91.52 193.28 84.22C193.28 79.14 193.28 61.36 193.28 58.82ZM189.89 124.74C186.88 125.18 186.5 123.14 188.22 123.01C189.12 120.38 189.95 122.88 189.89 124.74ZM181.5 148.35C176.58 150.78 177.66 159.17 171.33 160.19C172.48 148.42 180.22 143.17 184.83 134.85C192.64 137.92 180.86 142.21 181.5 148.35ZM178.11 187.26C178.62 187.26 182.66 187.26 183.17 187.26C179.9 197.12 173.18 210.05 178.11 222.72C173.89 227.01 169.34 230.85 168 237.95C163.65 236.03 164.61 228.86 164.61 222.72C168.9 210.69 173.5 198.98 178.11 187.26ZM195.01 217.66C194.3 221.76 198.08 221.31 196.67 226.11C182.21 241.86 177.86 284.93 189.89 307.2C191.94 307.01 190.91 309.63 189.89 307.2C179.84 298.69 175.62 284.35 171.26 270.02C173.76 253.95 181.63 243.2 184.77 227.78C188.67 226.62 189.31 222.21 193.22 220.99C192 214.72 196.1 213.76 194.94 207.49C196.93 206.46 197.38 195.58 201.66 202.43C209.22 202.18 202.24 207.23 201.73 209.22C197.06 209.6 197.89 215.49 195.01 217.66ZM237.25 330.82C230.98 325.31 224.83 319.55 220.35 312.19C217.73 308.61 215.49 304.64 213.57 300.42C210.56 297.73 211.33 291.33 208.51 288.58C208.38 272.13 210.05 257.47 211.9 242.94C214.34 233.02 222.53 228.74 227.14 220.93C234.3 215.68 239.3 208.32 247.42 204.03C251.26 202.82 256.06 202.5 259.26 200.64C262.27 198.59 269.12 200.32 271.1 197.31C312.26 199.62 341.44 189.95 382.59 192.26C391.3 193.6 393.66 188.67 401.22 188.86C404.93 188.86 434.68 188.86 438.4 188.86C441.09 189.31 441.34 187.26 443.46 187.14C448.64 185.92 448.45 190.08 453.63 188.86C457.92 189.06 460.16 191.3 460.35 195.65C462.59 197.38 466.56 197.31 468.8 198.98C473.86 214.21 480.06 228.22 484.03 244.61C484.03 247.31 484.03 268.92 484.03 271.62C478.66 289.92 471.04 305.98 462.08 320.64C456.06 325.38 446.4 326.34 440.13 330.75C436.35 332.1 433.54 334.34 428.29 334.14C427.71 338.62 419.71 335.68 418.18 339.2C372.54 343.1 333.18 338.11 287.94 337.6C270.91 335.49 253.95 333.25 237.25 330.82ZM446.78 268.35C446.53 247.23 450.24 222.14 429.89 221.06C429.55 221.06 426.84 221.06 426.5 221.06C419.39 228.03 411.46 234.24 407.87 244.74C407.62 254.02 407.68 262.91 409.6 270.08C415.94 274.37 415.94 285.06 426.5 285.25C440.06 286.4 441.92 275.84 446.78 268.35ZM279.49 292.03C291.71 279.68 286.08 246.59 277.76 234.56C249.54 226.05 243.46 269.63 254.14 290.3C261.5 295.17 271.1 296.19 279.49 292.03ZM355.52 290.24C358.91 286.27 360 278.91 357.25 273.34C350.91 267.26 339.01 270.66 338.62 280.13C339.58 287.04 343.55 290.94 350.46 291.97C350.72 289.98 353.15 290.18 355.52 290.24ZM341.95 312.26C330.88 311.49 330.24 300.29 318.34 300.48C317.38 302.91 315.71 304.58 313.28 305.54C315.97 323.14 331.58 327.81 350.46 329.22C354.43 328.64 356.8 326.53 362.3 327.49C370.56 322.05 389.82 313.92 379.2 300.48C367.42 299.39 364.74 307.39 357.18 310.59C351.62 310.66 348.74 313.41 341.95 312.26Z" id="e9PMgeTdb"></path></defs><g><g><g><use xlink:href="#e9PMgeTdb" opacity="1" fill="#488f84" fill-opacity="1"></use><g><use xlink:href="#e9PMgeTdb" opacity="1" fill-opacity="0" stroke="#000000" stroke-width="1" stroke-opacity="0"></use></g></g></g></g></svg>