<?xml version="1.0" encoding="UTF-8" standalone="no"?>
<!DOCTYPE svg PUBLIC "-//W3C//DTD SVG 1.1//EN" "http://www.w3.org/Graphics/SVG/1.1/DTD/svg11.dtd">
<svg version="1.1" xmlns="http://www.w3.org/2000/svg" xmlns:xlink="http://www.w3.org/1999/xlink" preserveAspectRatio="xMidYMid meet" viewBox="0 0 640 640" width="640" height="640"><defs><path d="M225.74 42.36C224.62 48.34 224.23 54.43 223.86 60.52C217.6 58.59 209.28 60.38 203.32 60.7C200.44 60.85 196.98 60.81 193.45 60.95C192.56 50.16 190.71 39.52 188.18 30.35C186.01 22.46 173.68 23.98 173.86 32.29C174.1 43.64 162.35 105.69 183.34 104.46C186.98 104.24 191.17 101.96 191.85 97.98C191.91 97.6 191.9 97.31 191.94 96.97C193.25 90.68 193.84 83.77 193.96 76.67C197.31 76.79 200.58 76.75 203.32 76.9C208.74 77.18 216.11 78.71 222.11 77.55C220.9 83.44 219.03 89 218.01 92.52C217.01 96.02 218.58 100.41 221.92 102.12C246.86 114.88 243.9 53.57 241.29 42.36C239.54 34.84 227.23 34.46 225.74 42.36Z" id="dh0bWTz0l"></path><path d="M291.53 34.74C277.65 35.23 263.96 36 250.23 37.86C244.77 38.6 246.13 46.08 250.23 47.58C260.34 51.3 270.73 52.35 281.37 52.89C279.8 68.02 279.02 83.15 278.96 98.4C278.91 110.17 297.25 110.17 297.21 98.4C297.15 83.47 296.4 68.65 294.9 53.83C304.59 54.94 316.54 56.56 323.34 52.1C327.77 49.19 328.32 43.73 324.92 39.79C317.84 31.57 301.25 34.4 291.53 34.74Z" id="f4bAVQozuL"></path><path d="M419.97 45.32C419.89 36.68 410.13 33.72 404.08 38.74C394.22 46.95 385.73 56.33 377.61 66.12C371.28 56.77 364.65 47.62 358.71 38.02C353.87 30.19 341.43 33.32 341.36 42.71C341.29 55.83 340.61 68.97 340.2 82.09C339.95 90.39 338.7 99.63 344.43 106.33C346.22 108.42 349.88 108.24 351.69 106.33C357.75 99.95 357.44 90.43 358.06 82.09C358.33 78.55 358.52 75.01 358.76 71.47C362.17 76.43 365.55 81.41 368.72 86.53C371.6 91.19 379.44 93.27 383.33 88.41C389.4 80.84 395.56 73.43 402.13 66.39C402.48 72.36 402.87 78.34 403.22 84.3C403.65 91.63 402.04 107.33 413.27 107.33C424.93 107.34 422.26 91.56 421.84 84.31C421.09 71.33 420.08 58.33 419.97 45.32Z" id="b2mDTJolvW"></path><path d="M461.69 93.49C462.11 73.26 462.94 52.27 455.04 33.45C452.84 28.2 444.07 28.21 444.33 34.9C445.2 57.57 443.46 80.05 443.23 102.71C443.17 107.7 447.44 111.88 452.4 111.88C466.39 111.85 480.14 111.34 493.94 108.9C505.51 106.85 500.58 89.29 489.08 91.3C479.98 92.9 470.86 93.36 461.69 93.49Z" id="andUs4snx"></path><path d="M364.2 144.75C289.76 142.55 216.29 146.49 142.03 138.29C138.05 137.85 136.06 141.16 136.17 144.46C134.83 145.23 133.73 146.38 133.32 147.97C126.17 175.08 130.44 206.84 132.24 234.54C134.58 270.6 139.28 306.51 144.02 342.32C153.34 412.73 160.2 482.98 167.52 553.53C165.56 554.71 164.1 556.94 164.28 559.12C164.32 559.56 164.36 559.99 164.39 560.43C164.76 564.79 169.65 567.89 173.3 566.41C197.02 572.36 220.69 578.24 244.12 585.33C270.38 593.27 296.12 606.83 322.78 612.66C323.32 612.77 323.8 612.72 324.3 612.73C325.12 613.41 326.08 613.94 327.2 614.08C355.81 617.82 384.78 606.69 411.25 597.14C434 588.94 456.34 579.27 478.06 568.52C484.65 567.07 491.11 565.12 497.43 562.17C497.65 562.06 497.83 561.93 498.02 561.82C500.55 562.5 503.5 561.48 504.86 558.03C529.16 496.62 525.01 424.55 525.05 359.79C525.07 324.95 524.9 290.13 526.36 255.31C527.71 223.04 533.74 191.96 537.7 160.08C537.81 159.16 537.74 158.35 537.56 157.61C538.94 153.27 536.22 147.43 530.63 147.44C475.06 147.51 419.81 146.39 364.2 144.75ZM502.06 312.52C501.58 317.37 501.03 322.22 500.42 327.06C500.48 318.65 500.89 310.26 501.66 301.9C501.83 305.43 501.96 308.97 502.06 312.52ZM470.6 337.87C470.34 339.6 470.6 341.14 471.17 342.51C469.62 348.58 468.1 354.67 466.63 360.79C468 352.29 469.5 343.57 471.05 334.65C470.88 335.72 470.77 336.8 470.6 337.87ZM223.46 409.62C228.74 409.59 234.09 409.1 238.72 409.21C249.67 409.47 261.13 410.69 272.38 410.83C272.64 415.2 273.03 419.57 273.7 423.91C274.73 430.45 274.72 437.73 278.94 443.07C279.74 444.08 280.83 444.56 281.98 444.67C284.34 447.41 288.26 449.72 290.52 450.82C302.62 456.68 314.72 461.75 326.26 468.68C326.3 468.7 326.34 468.71 326.38 468.74C327.18 469.62 328.31 470.19 329.8 470.09C349.86 468.78 373.6 464.09 390.26 452.24C391.27 451.52 391.9 450.64 392.37 449.73C392.39 449.73 392.42 449.74 392.45 449.74C396.24 449.89 398.8 446.61 399.05 443.14C399.68 434.69 400.97 426.28 401.69 417.83C402.35 410.07 403.76 399.29 399.24 392.37C398.37 391.04 396.87 389.97 395.24 389.63C394.8 389.12 394.21 388.71 393.4 388.53C365.84 382.58 334.57 384.57 306.32 382.61C278.16 380.65 249.46 377.23 221.11 378.08C217.59 328.22 214.4 278.33 206.7 229.11C213.68 230.47 222.41 229.45 227.99 229.63C246.41 230.2 264.85 230.33 283.28 230.32C294.75 230.3 306.34 229.98 317.98 229.52C351.14 232.02 385.42 229.43 419.05 226.35C433.87 226.59 448.61 227.42 463.18 229.19C460.4 241.41 460.46 254.69 461.75 267.82C461.58 272.3 461.38 276.78 461.1 281.26C397.16 281.81 333.92 287.39 269.82 282.7C266.82 282.48 265.06 284.86 264.81 287.38C260.37 291.19 259.74 298.63 258.83 304.12C257.58 311.7 256.71 320.93 261.04 327.72C262.8 330.48 266.25 331.61 269.14 330.49C269.88 331.3 270.96 331.79 272.42 331.63C333.76 324.87 394.42 330.68 455.59 329.75C452.95 348.5 449.96 367.21 447.11 385.91C443.62 408.77 440.45 431.62 438.39 454.65C437.6 463.52 435.7 475.79 436.6 486.82C417.54 496.33 397.94 504.69 378.1 512.48C364.97 517.64 348.58 520.73 333.58 525.24C321.44 518.23 304.88 515.31 292.31 510.26C272.32 502.21 252.11 491.48 231.08 485.7C227.74 460.45 225.43 435.06 223.46 409.62Z" id="b519ajxOL8"></path></defs><g><g><g><use xlink:href="#dh0bWTz0l" opacity="1" fill="#488f84" fill-opacity="1"></use><g><use xlink:href="#dh0bWTz0l" opacity="1" fill-opacity="0" stroke="#000000" stroke-width="1" stroke-opacity="0"></use></g></g><g><use xlink:href="#f4bAVQozuL" opacity="1" fill="#488f84" fill-opacity="1"></use><g><use xlink:href="#f4bAVQozuL" opacity="1" fill-opacity="0" stroke="#000000" stroke-width="1" stroke-opacity="0"></use></g></g><g><use xlink:href="#b2mDTJolvW" opacity="1" fill="#488f84" fill-opacity="1"></use><g><use xlink:href="#b2mDTJolvW" opacity="1" fill-opacity="0" stroke="#000000" stroke-width="1" stroke-opacity="0"></use></g></g><g><use xlink:href="#andUs4snx" opacity="1" fill="#488f84" fill-opacity="1"></use><g><use xlink:href="#andUs4snx" opacity="1" fill-opacity="0" stroke="#000000" stroke-width="1" stroke-opacity="0"></use></g></g><g><use xlink:href="#b519ajxOL8" opacity="1" fill="#488f84" fill-opacity="1"></use><g><use xlink:href="#b519ajxOL8" opacity="1" fill-opacity="0" stroke="#000000" stroke-width="1" stroke-opacity="0"></use></g></g></g></g></svg>