<?xml version="1.0" encoding="UTF-8" standalone="no"?>
<!DOCTYPE svg PUBLIC "-//W3C//DTD SVG 1.1//EN" "http://www.w3.org/Graphics/SVG/1.1/DTD/svg11.dtd">
<svg version="1.1" xmlns="http://www.w3.org/2000/svg" xmlns:xlink="http://www.w3.org/1999/xlink" preserveAspectRatio="xMidYMid meet" viewBox="0 0 640 640" width="640" height="640"><defs><path d="M557.44 26.93C557.46 25.12 557.17 23.52 556.76 22.01C557.55 13.14 552.34 3.77 540.98 4.07C397.56 7.83 254.17 2.22 110.76 1.99C98.83 1.97 93.6 12.46 95.07 21.66C94.6 23.26 94.27 24.98 94.29 26.94C96.45 198.08 102.33 443.97 102.52 615.14C102.52 618.98 103.61 622.09 105.35 624.57C106.4 631.82 111.62 638.23 121.05 638C183.04 636.46 245.05 635.47 306.99 632.43C362.2 629.72 431 633.35 483.77 615.33C502.45 608.95 519.16 599.52 533.49 585.86C559.68 560.89 568.62 527.38 570.88 492.07C573.05 458.14 569.05 422.56 568.26 391.31C566.22 310.57 561.79 244.03 559.14 163.31C557.79 122.62 557.05 67.65 557.44 26.93ZM453.05 488.61C462.12 512.96 466.27 543.19 452.33 566.48C435.46 594.65 405.36 593.88 376.74 597.49C359.24 599.7 340.64 598.53 322.99 599.03C309.26 599.41 135.41 603.65 135.41 604.33C135 439.59 129.56 200.08 127.36 35.35C259.77 35.92 392.15 40.47 524.56 37.64C524.06 172.89 536.05 368.42 536.76 475.32C516.22 468.83 494.99 466.1 473.07 467.57C471.34 467.68 469.81 468.07 468.39 468.56C458.3 468.62 448.54 476.5 453.05 488.61ZM491.03 500.57C507.04 501.19 522.83 504.28 537.78 510.62C537.85 510.8 537.89 511 537.96 511.18C533.1 546.9 510.52 568.81 481.32 581.17C494.62 558.51 497.94 530.71 491.03 500.57Z" id="cqh9mQqCc"></path><path d="M217.54 202.05C196.03 202.11 196.03 235.45 217.54 235.39C231.98 235.36 246.41 235.05 260.84 234.71C266.96 259.21 271.05 284.17 270.53 309.5C270.34 318.75 269.53 331.18 263.26 338.65C256.09 347.2 239.26 337.63 232.13 334.01C213 324.28 196.13 353.04 215.3 362.79C249.93 380.4 287.12 379.53 300.06 337.54C309.95 305.44 302.86 266.53 294.95 233.73C303.32 233.46 311.68 233.22 320.05 232.92C341.48 232.16 341.56 198.81 320.04 199.58C285.88 200.8 251.73 201.96 217.54 202.05Z" id="b4YwhMATFd"></path><path d="M388.62 230.21C398.34 223.42 418.16 227.95 428.73 229.22C450.05 231.79 449.81 198.41 428.73 195.88C406.45 193.2 372.48 190.16 359.84 213.99C349.69 233.13 362.26 255.83 372.08 272.28C384.18 292.56 399.31 311.08 409.57 332.45C410.41 334.19 411.58 338.52 411.98 340.08C401.61 345.53 379.41 339.2 368.94 337.26C347.93 333.37 338.94 365.52 360.08 369.42C382.69 373.61 420.04 382.36 437.95 361.85C453.28 344.31 441.75 320.48 431.86 303.42C419.43 281.99 403.42 262.7 392.62 240.31C389.4 233.63 390.88 228.64 388.62 230.21Z" id="g2KdNsBhyX"></path></defs><g><g><g><use xlink:href="#cqh9mQqCc" opacity="1" fill="#488f84" fill-opacity="1"></use><g><use xlink:href="#cqh9mQqCc" opacity="1" fill-opacity="0" stroke="#000000" stroke-width="1" stroke-opacity="0"></use></g></g><g><use xlink:href="#b4YwhMATFd" opacity="1" fill="#488f84" fill-opacity="1"></use><g><use xlink:href="#b4YwhMATFd" opacity="1" fill-opacity="0" stroke="#000000" stroke-width="1" stroke-opacity="0"></use></g></g><g><use xlink:href="#g2KdNsBhyX" opacity="1" fill="#488f84" fill-opacity="1"></use><g><use xlink:href="#g2KdNsBhyX" opacity="1" fill-opacity="0" stroke="#000000" stroke-width="1" stroke-opacity="0"></use></g></g></g></g></svg>