<?xml version="1.0" encoding="UTF-8" standalone="no"?>
<!DOCTYPE svg PUBLIC "-//W3C//DTD SVG 1.1//EN" "http://www.w3.org/Graphics/SVG/1.1/DTD/svg11.dtd">
<svg version="1.1" xmlns="http://www.w3.org/2000/svg" xmlns:xlink="http://www.w3.org/1999/xlink" preserveAspectRatio="xMidYMid meet" viewBox="0 0 640 640" width="640" height="640"><defs><path d="M624.52 601.54C624.27 605.39 622.66 608.36 620.56 610.59C619.94 614.44 617.58 618.15 613.49 619.27C576.68 629.31 529.08 621.38 491.89 614.68C488.05 614.07 486.56 611.09 486.69 608.12C486.44 607.62 486.44 607 486.31 606.5C483.96 604.27 482.47 600.8 482.97 596.22C486.81 554.69 488.92 513.17 487.92 471.39C487.43 450.7 486.56 429.5 484.21 408.92C479 362.44 432.64 312.24 389.13 350.05C327.9 403.1 355.54 541.3 360.25 612.2C360.62 617.04 357.4 619.64 353.81 620.26C352.69 622.74 350.71 624.97 347.37 626.21C327.41 633.4 303.61 633.03 282.54 633.4C263.7 633.89 243 635.51 226.14 626.09C225.64 625.84 225.39 625.34 225.02 624.85C221.18 623.11 218.21 619.64 217.96 614.31C214.49 485.4 201.84 343.72 228 216.92C228.49 214.56 229.73 213.2 231.35 212.46C232.21 211.84 233.08 211.22 234.2 210.84C263.7 202.54 303.36 212.46 333.48 215.8C343.03 216.79 352.45 217.04 357.53 226.21C359.39 229.68 360.26 234.15 360.51 238.86C407.73 191.26 509.87 195.47 557.22 237.12C645.72 315.09 631.84 497.55 624.52 601.54Z" id="b52NlTjfFB"></path><path d="M164.04 232.16C151.52 362.19 149.42 492.34 157.6 622.74C158.09 631.17 150.41 637.12 142.85 637.61C105.41 639.72 68.1 640.46 30.55 639.72C22.24 639.59 16.04 633.03 15.8 624.97C11.33 495.07 0.05 349.17 30.3 221.75C31.17 218.16 33.4 216.3 36 215.55C36.12 215.18 36.37 214.81 36.62 214.44C36 211.83 37.11 208.98 39.47 207.62C52.73 199.07 71.7 203.65 87.07 203.53C109.13 203.28 131.32 202.66 153.26 203.9C165.03 204.65 167.76 217.54 161.68 224.11C163.3 226.46 164.29 229.19 164.04 232.16Z" id="i4Z3R0rVO"></path><path d="M88.8 166.1C32.28 175.39 10.46 89.25 35.38 45.86C49.75 20.82 78.39 0.12 108.14 0C138.75 0 163.54 26.77 173.34 53.79C192.67 106.85 159.45 163 101.82 166.84C97.23 167.21 92.89 166.84 88.8 166.1Z" id="a4ceALxq4m"></path></defs><g><g><g><use xlink:href="#b52NlTjfFB" opacity="1" fill="#488f84" fill-opacity="1"></use><g><use xlink:href="#b52NlTjfFB" opacity="1" fill-opacity="0" stroke="#000000" stroke-width="1" stroke-opacity="0"></use></g></g><g><use xlink:href="#i4Z3R0rVO" opacity="1" fill="#488f84" fill-opacity="1"></use><g><use xlink:href="#i4Z3R0rVO" opacity="1" fill-opacity="0" stroke="#000000" stroke-width="1" stroke-opacity="0"></use></g></g><g><use xlink:href="#a4ceALxq4m" opacity="1" fill="#488f84" fill-opacity="1"></use><g><use xlink:href="#a4ceALxq4m" opacity="1" fill-opacity="0" stroke="#000000" stroke-width="1" stroke-opacity="0"></use></g></g></g></g></svg>