<svg xmlns="http://www.w3.org/2000/svg" xmlns:xlink="http://www.w3.org/1999/xlink" width="1000" height="1000" preserveAspectRatio="xMidYMid meet" version="1.1" viewBox="0 0 640 640"><defs><path id="bfi0Gy0IU" d="M415.15 389.84C415.15 389.84 399.31 458.22 399.31 477.03C399.31 495.85 368.92 537.09 368.92 537.09C361.2 535.86 322.61 529.71 253.14 518.64C249.67 494.54 247.74 481.16 247.35 478.48C247.35 478.48 237.94 420.95 223.83 381.15C262.09 382.89 399.14 390.92 415.15 389.84Z"/><path id="b1ryt71zjA" d="M193.97 331.4C194.08 345.61 199.05 371.03 209.29 389.57C219.52 408.1 246.1 434.63 258.33 448C270.55 461.37 323.83 486.33 361.37 463.4C398.9 440.47 422.89 410.22 430.05 400.23C437.22 390.23 451.06 373.41 455.03 338.07C458.99 302.73 462.78 280.16 463.55 261.73C464.32 243.3 474.06 222.75 473.6 208.18C473.14 193.6 471.24 120.37 436.03 87.65C400.83 54.93 351.02 23.37 319.35 24.89C287.69 26.4 262.4 36.71 235.16 59.72C207.92 82.72 188.91 121.34 183.26 137.44C177.62 153.53 169.35 189.76 172.75 210.5C176.14 231.23 183.49 276.28 185.67 292C187.86 307.71 193.85 317.19 193.97 331.4Z"/><path id="l15h9L4zi" d="M340.02 484.15C434.38 496.26 401.18 441.97 404.45 427.98C405.56 423.23 391.94 439.46 369.18 445.24C349.39 450.27 326.79 464.41 305.24 465.01C278.6 465.75 261.68 449.08 261.68 449.08C279.81 461.43 261.8 474.11 340.02 484.15Z"/><path id="ab1hsebzX" d="M109.87 502.36C117.58 499.32 156.18 484.12 225.64 456.77C232.59 441.14 236.45 432.46 237.22 430.72C237.22 430.72 248.07 455.32 247.35 478.48C247.35 478.48 275.57 500.19 293.66 503.81C311.75 507.43 316.09 517.55 316.09 517.55C316.09 517.55 336.35 513.21 338.52 511.76C340.69 510.32 344.31 503.8 358.78 498.02C373.26 492.23 399.3 477.03 399.3 477.03C399.64 474.57 401.33 462.27 404.37 440.13C412.62 449.68 417.2 454.99 418.12 456.05C418.12 456.05 523.76 505.25 533.17 508.87C542.58 512.49 562.84 510.32 567.9 580.51C567.9 580.51 476.01 628.26 317.54 628.26C159.07 628.26 80.2 576.89 80.2 576.89C86.13 561.98 100.46 508.87 109.87 502.36Z"/><path id="b2qcrGcdma" d="M110.59 503.92L152.92 491.14L114.21 507.42L99.74 531.48L110.59 503.92Z"/><path id="bxYk8LEWy" d="M548.9 524.16L509.01 505.08L544.79 527.07L555.42 553.05L548.9 524.16Z"/><path id="c72aEYNgkD" d="M237.22 430.72C237.22 430.72 190.55 503.08 246.45 538.36C246.45 538.36 274.91 477.72 313.86 514.28C313.86 514.28 330.43 523.14 340.54 509.85C358.24 505.25 380.49 493.86 385.38 541.07C385.38 541.07 434.19 488.08 406.8 442.94"/><path id="c2xf2ePzfG" d="M280.09 503.94C284.97 504.53 318.78 516.97 318.78 516.97C318.78 516.97 336.09 513.58 342.87 510.44C349.64 507.31 364.96 503.77 372.73 508.49C372.73 508.49 360.23 512.85 355.17 524.07C350.1 535.28 329.78 560.97 329.78 560.97C329.78 560.97 341.78 615.96 341.78 625.01C335.49 625.01 285.12 625.01 278.83 625.01C278.83 625.01 294.02 568.57 300.17 556.99C300.17 556.99 303.07 530.94 305.24 525.88C302.36 525.22 287.96 521.92 262.04 515.98C270.82 507.56 276.83 503.55 280.09 503.94Z"/><path id="a4Q842wTzZ" d="M300.17 556.99L329.78 560.97"/><path id="cUw0WHSlw" d="M305.24 525.87L320.1 516.7L349.62 533.7"/><path id="a7OwV3KdzT" d="M341.91 535.23C338.56 538.38 327.1 554.77 327.1 554.77C327.1 554.77 326.29 558.7 328.39 556.11C333.75 549.54 343.59 536.44 343.59 536.44C343.25 536.2 345.26 532.07 341.91 535.23Z"/><path id="a188PmE3kE" d="M327.68 581.02C327.68 581.02 325.09 572.34 327.68 574.24C328.17 574.6 328.85 576.15 329.62 578.47C332.92 588.4 337.94 612.51 337.33 618.61C337.33 618.61 334 624.78 333.8 615.76C332.57 608.81 328.29 584.5 327.68 581.02Z"/><path id="bpcPPAb8" d="M191 313.7C176.39 313.08 172.58 310.62 168.32 284.05C164.02 257.22 149.27 231.41 167.58 232.18C182.2 232.79 203.47 257.14 202.33 284.29C201.19 311.44 205.62 314.31 191 313.7Z"/><path id="e2n74rafxa" d="M449.54 325.06C463.83 325.65 482.36 312.94 493.27 281.44C502.59 254.5 501.99 220.02 487.7 219.42C473.4 218.82 448.35 251.55 447.16 280.04C445.97 308.52 435.25 324.46 449.54 325.06Z"/><path id="a2lKd3i4OG" d="M466.19 260.59C466.19 260.59 473.54 232.9 485.82 230.35C485.82 230.35 498.7 228.04 495.55 252.41"/><path id="cWwtBw7mI" d="M461.82 297.16C461.82 297.16 465.86 290.19 470.67 286.15C475.48 282.11 479.85 271.92 478.35 264.97"/><path id="eIUt2pWwf" d="M169.76 276.3C169.76 276.3 165.21 254.84 163.21 251.78C161.21 248.71 160.6 245.65 164.64 248.29C168.69 250.92 175.21 250.43 180.81 262.41C186.41 274.39 174.57 291.41 185.44 297.55"/><path id="aptFmGFWq"/><path id="c1pblBxs5k" d="M201.01 321.1C206.79 351.19 214.2 361.96 215.1 362.25C217.55 363.07 226.56 376.77 230.54 383.41C234.53 390.05 248.68 401.71 252.81 404.72C256.95 407.73 265.3 409.17 266.83 412.31C268.35 415.45 268.04 440.7 272.17 438.03C273.91 436.91 277.93 444.39 283.29 446.02C290.69 448.26 299.57 445.22 299.02 446.02C298.05 447.4 307.7 443.67 308.33 422.86C308.97 402.05 325.4 406.05 327.24 407.31C327.24 407.31 339.71 407.95 342.12 418.23C344.53 428.51 349.59 437.72 353.39 437.4C357.19 437.09 369.63 450.77 376.31 438.03C383 425.29 385.03 405.35 386.95 404.72C388.88 404.09 410.67 385.44 413.52 377.47C416.36 369.49 419.26 356.83 421.49 354.32C423.73 351.81 440.83 344.71 442.21 340.16C443.58 335.6 452.04 319.27 451.56 303.12C451.08 286.98 451.65 295.15 452.97 285.24C454.29 275.32 461.92 279.17 457.71 248.49C453.5 217.81 470.82 207.12 470.84 219.93C470.86 237.35 453.94 359.69 447.37 375.28C440.8 390.87 422.23 410.9 408.78 426.45C395.34 441.99 361.17 472.03 332.22 473.67C303.28 475.31 271.88 463.73 254.21 444.77C236.55 425.8 221.76 408.84 212.26 395.7C209.18 391.43 197.65 374.55 192.81 344.71C182.76 282.74 181.12 229.42 180.5 226.21C182.83 227.09 190.95 268.76 201.01 321.1Z"/><path id="cojhaLVbO" d="M331.96 38.83C331.95 39.1 331.94 39.38 331.93 39.66C331.86 39.66 331.79 39.65 331.72 39.65C331.72 39.72 331.71 39.79 331.71 39.86C331.57 39.85 331.43 39.85 331.29 39.84C331.35 39.3 331.41 39.14 331.55 38.81C331.68 38.81 331.82 38.82 331.96 38.83Z"/><path id="a3j6E410HC" d="M206.08 210.59C214.67 204.32 250.63 195.17 278.59 210.66C306.55 226.16 273.38 225.96 267.78 224.66C262.17 223.35 216.92 216.64 201.74 235.3C202.6 230.36 197.49 216.86 206.08 210.59Z"/><path id="b2XOXmCmXl" d="M365.19 223.89C353.7 230.97 330.36 222.89 347.18 211.29C364 199.68 422.4 189.26 437.92 222.12C453.43 254.99 450.61 223.19 392.85 217.46C387.32 218.75 376.67 216.82 365.19 223.89Z"/><path id="cNfZHVeQU" d="M452.27 323.92C452.26 325.35 452.88 325.67 452.97 326.92C452.86 326.91 452.75 326.91 452.64 326.9C451.98 325.87 451.16 325.14 451.78 323.73C451.94 323.79 452.11 323.86 452.27 323.92Z"/><path id="ctRru4IVr" d="M452.75 328.23C452.69 328.23 452.64 328.22 452.58 328.22C452.59 328.06 452.6 327.89 452.6 327.73C452.72 327.91 452.7 327.89 452.75 328.23Z"/><path id="a1hwCCw8dm" d="M323.09 393.97C355.67 391.61 375.93 373.56 383.8 361.95C360.21 368.19 352.31 365.96 347.87 365.89C343.44 365.83 341.27 363.72 335.4 365.37C329.53 367.02 316.86 366.02 313.81 365.18C310.77 364.34 267.25 373.41 266.42 373.49C265.59 373.58 261.68 376.49 261.68 376.49C273.96 379.99 290.5 396.34 323.09 393.97Z"/><path id="mmpQhF6Vz" d="M383.5 237.87C371.8 237.56 362.34 241.42 360.35 247.29C360.35 247.29 360.65 248.67 362.08 248.51C363.51 248.35 372.13 249.28 375.63 249.64C379.13 250 392.27 250.48 394.59 249.94C396.91 249.39 404.02 249.2 405.29 248.64C406.56 248.07 406.3 246.72 406.3 246.72C401.74 244.95 395.21 238.18 383.5 237.87Z"/><path id="a2BMXoH0ex" d="M392.81 239.63C398.18 240.34 396.72 241.91 396.72 246.24C396.72 252.81 392.93 249.81 383.09 249.81C373.25 249.81 369.26 251.1 369.26 244.54C369.26 240.63 368.09 241.09 372.45 238.92C375.42 237.45 378.52 237.85 382.51 237.85C385.85 237.85 390.05 239.27 392.81 239.63Z"/><path id="a62rz7c5sM" d="M302.35 385.95C306.5 385.62 316.19 386.83 319.84 386.68C323.5 386.53 323.66 385.74 327.77 386.46C329.45 386.75 329.44 393.08 310.02 391.67C308.48 390.52 298.19 386.27 302.35 385.95Z"/><path id="b3PNfEul1" d="M319.13 390.75C335.87 389.87 346.22 382.33 350.22 377.45C338.11 379.99 334.04 379.02 331.76 378.98C329.48 378.93 328.36 378.04 325.35 378.71C322.34 379.38 315.82 378.91 314.25 378.54C312.68 378.18 290.34 381.84 289.92 381.88C289.49 381.91 287.49 383.12 287.49 383.12C293.82 384.65 302.38 391.62 319.13 390.75Z"/><path id="aSLjlRRpp" d="M263.38 373.9C266.53 375.09 271.85 378.34 275.09 378.47C275.09 378.47 280.16 378.9 290.77 377.36C299.37 376.12 310.85 376.77 314.39 376.92C317.93 377.07 325.89 377.93 338.8 374.92C351.71 371.91 353.49 371.63 359.72 371.36C365.94 371.09 377.08 368 387.03 359.37C387.03 359.37 383.1 368.44 372.62 370.66C362.14 372.88 353.71 372.79 345.73 374.59C337.76 376.39 327.22 379.94 308.83 378.11C298.45 377.35 292.2 378.18 288.45 378.62C284.71 379.05 280.78 379.29 277.46 379.15C274.13 379.01 271.16 378.93 267.88 377.68C264.61 376.44 260.86 377.97 258.25 377.77C259.28 376.99 260.24 372.7 263.38 373.9Z"/><path id="c33jIhbEV2" d="M386.58 335.05C388.4 335.48 390.99 336.19 393.99 337.41C395.49 338.02 397.1 338.74 398.74 339.66C400.38 340.59 402.12 341.61 403.72 343.01C405.37 344.33 406.94 346.04 408.16 348.11C408.68 349.23 409.25 350.34 409.44 351.65C409.46 351.74 409.61 352.51 409.63 352.6C409.65 352.73 409.66 352.64 409.68 352.96C409.68 352.97 409.68 353.04 409.69 353.16L409.7 353.55C409.73 354.5 409.75 355.03 409.75 355.13C409.62 357.53 409.31 359.74 408.86 361.83C408.46 363.95 407.83 365.95 407.22 367.87C406.64 369.8 405.93 371.61 405.24 373.32C404.58 375.03 403.86 376.61 403.18 378.06C400.47 383.86 398.05 387.41 398.05 387.41C398.05 387.41 399.14 383.27 400.84 377.2C401.67 374.15 402.64 370.62 403.54 366.84C404.02 364.96 404.37 362.99 404.75 361.03C405.13 359.05 405.32 357.06 405.41 355.24C405.41 355.14 405.41 354.61 405.4 353.66L405.39 353.27C405.39 353.15 405.39 353.08 405.39 353.07C405.4 353.26 405.37 353.04 405.37 353.04C405.36 352.98 405.26 352.5 405.25 352.44C405.19 351.64 404.78 350.87 404.47 350.09C403.58 348.6 402.55 347.08 401.17 345.84C398.53 343.28 395.5 341.27 392.87 339.62C390.21 338 387.9 336.73 386.27 335.85C384.63 334.99 383.69 334.49 383.69 334.49C384.27 334.6 384.75 334.63 386.58 335.05Z"/><path id="b7ctfNVwpE" d="M253.97 350.21C253.15 351.22 252.26 352.31 251.31 353.47C250.38 354.62 249.46 355.88 248.53 357.16C247.58 358.43 246.71 359.82 245.9 361.21C245.47 361.9 245.09 362.61 244.77 363.34C244.38 364.05 244.17 364.79 243.91 365.52C243.74 365.88 243.67 366.24 243.59 366.59C243.59 366.63 243.54 366.81 243.47 367.13L243.4 367.39L243.37 367.53L243.35 367.6C243.35 367.61 243.35 367.61 243.35 367.61C243.36 367.54 243.33 367.81 243.36 367.45C243.36 367.45 243.36 367.49 243.36 367.49C243.31 368.37 243.27 369.24 243.22 370.1C243.03 371.91 243.32 373.27 243.35 374.81C243.5 376.32 243.78 377.88 243.95 379.33C244.26 380.76 244.51 382.14 244.76 383.42C245.08 384.68 245.32 385.86 245.56 386.9C245.82 387.94 246.04 388.85 246.22 389.6C246.61 391.11 246.83 391.97 246.83 391.97C246.83 391.97 246.28 391.26 245.43 389.94C244.6 388.61 243.49 386.66 242.39 384.2C241.86 382.96 241.32 381.59 240.8 380.12C240.4 378.6 239.85 377.07 239.56 375.32C239.43 374.42 239.3 373.51 239.17 372.59C239.11 372.13 239.02 371.65 239 371.2C239 371.07 239.03 370.04 239.03 369.91C239.05 369.04 239.07 368.17 239.09 367.3C239.09 367.3 239.09 367.28 239.09 367.26L239.11 367.05L239.12 367.03L239.14 366.93L239.17 366.75L239.25 366.37C239.34 365.92 239.39 365.67 239.4 365.62C239.5 365.12 239.6 364.61 239.79 364.16C240.13 363.24 240.47 362.3 240.93 361.48C241.35 360.62 241.81 359.8 242.32 359.04C242.78 358.23 243.33 357.51 243.88 356.81C244.41 356.09 244.97 355.43 245.53 354.79C246.63 353.47 247.81 352.33 248.94 351.27C250.05 350.19 251.18 349.27 252.23 348.43C256.44 345.07 259.68 343.5 259.68 343.5C258.54 344.84 257.4 346.19 253.97 350.21Z"/><path id="b12XBApv0E" d="M290.59 298.17C290.34 299.46 289.95 301.3 289.25 303.44C288.94 304.52 288.51 305.68 288.01 306.88C287.46 308.09 286.97 309.37 286 310.69C285.96 310.75 285.77 311.04 285.42 311.56C285.05 312.08 284.85 312.37 284.81 312.43C284.39 313.02 284.16 313.54 283.8 314.08C283.15 315.23 282.49 316.47 281.93 317.72C281.35 318.97 280.87 320.24 280.47 321.48C280.32 322.07 280.16 322.68 280.05 323.22C280.05 323.27 280.02 323.52 279.98 323.96L279.97 324.06L279.96 324.1L279.96 324.13C279.95 324.13 279.95 324.14 279.95 324.14C279.96 324.18 279.91 323.86 279.93 324C279.93 324.02 279.95 324.1 279.97 324.26C280.01 324.57 280.04 324.74 280.04 324.77C280.1 325.53 280.32 325.94 280.41 326.48C280.5 326.99 280.79 327.57 280.96 328.11C281.42 329.15 281.86 330.19 282.42 331.04C282.92 331.97 283.55 332.64 284.05 333.36C284.64 333.94 285.17 334.5 285.64 334.93C286.65 335.63 287.29 336.1 287.29 336.1C287.29 336.1 286.57 336 285.22 335.69C284.6 335.44 283.83 335.11 282.99 334.64C282.23 334.08 281.25 333.5 280.47 332.6C279.59 331.78 278.8 330.75 278.07 329.58C277.74 328.96 277.34 328.42 277.04 327.66C276.72 326.94 276.41 326.09 276.29 325.48C276.28 325.45 276.24 325.28 276.16 324.98L276.1 324.72L276.07 324.53L276.07 324.49L276.07 324.4L276.06 324.23C276.04 323.41 276.03 322.95 276.03 322.86C276.08 322 276.23 321.2 276.4 320.39C276.79 318.84 277.35 317.35 277.99 315.92C278.65 314.51 279.38 313.16 280.25 311.84C281.16 310.4 282.15 309.4 283.01 308.34C283.75 307.49 284.48 306.38 285.15 305.39C285.81 304.33 286.43 303.34 287 302.42C289.25 298.66 290.91 296.13 290.91 296.13C290.85 296.54 290.83 296.88 290.59 298.17Z"/><path id="bN0PtZI4M" d="M350.31 333.72C351.28 332.82 352.64 331.54 354.11 329.94C355.53 328.32 357.11 326.33 357.87 324.15C357.97 323.89 358 323.61 358.08 323.35C358.08 323.33 358.1 323.27 358.13 323.15L358.14 323.1C358.15 323.09 358.15 323.09 358.15 323.08C358.18 322.91 358.11 323.31 358.12 323.26C358.12 323.26 358.12 323.25 358.12 323.23L358.13 323.1L358.17 322.56C358.22 321.9 358.25 321.54 358.25 321.47C358.29 321.1 358.34 320.72 358.27 320.47C358.2 319.89 358.14 319.32 358.07 318.73C358.05 318.6 357.9 317.96 357.65 316.8C357.27 315.63 357.06 314.99 357.02 314.86C356.76 314.22 356.5 313.58 356.24 312.95C355.65 311.7 355.09 310.44 354.42 309.26C354.38 309.21 354.22 308.91 353.92 308.38L353.72 308.04L353.61 307.81C353.49 307.53 353.42 307.37 353.41 307.34C353.14 306.72 352.87 306.1 352.61 305.51C352.15 304.22 351.8 302.93 351.49 301.78C351.24 300.66 351.07 299.61 350.91 298.69C350.73 297.78 350.69 296.95 350.62 296.29C350.5 294.95 350.48 294.19 350.48 294.19C350.48 294.19 350.86 294.86 351.45 296.06C352.01 297.26 352.9 298.93 353.83 300.94C354.37 301.88 354.89 302.87 355.45 303.94C355.8 304.48 356.17 305.04 356.54 305.61C356.56 305.64 356.65 305.78 356.82 306.04L356.95 306.26C356.95 306.27 356.96 306.27 356.96 306.27C357.03 306.38 356.87 306.13 356.89 306.16C356.89 306.16 356.9 306.17 356.91 306.19L356.95 306.24L357.03 306.35C357.41 306.88 357.62 307.17 357.66 307.23C358.48 308.43 359.33 309.72 360.04 311.13C360.37 311.85 360.73 312.56 361.03 313.31C361.09 313.46 361.35 314.24 361.83 315.63C362.13 317.11 362.29 317.93 362.33 318.09C362.45 318.95 362.43 319.91 362.46 320.8C362.49 321.74 362.26 322.31 362.17 323.07C362.16 323.11 362.13 323.28 362.07 323.61L362.05 323.74C362.04 323.76 362.04 323.77 362.04 323.77C362.05 323.73 361.97 324.15 362 323.98C362 323.98 362 323.99 361.99 324L361.97 324.08C361.9 324.27 361.86 324.37 361.86 324.39C361.7 324.8 361.58 325.23 361.39 325.6C360.71 327.15 359.68 328.31 358.72 329.33C357.75 330.35 356.7 331.12 355.74 331.81C353.79 333.15 352.02 333.94 350.77 334.44C349.51 334.94 348.76 335.12 348.76 335.12C349.07 334.84 349.34 334.62 350.31 333.72Z"/><path id="j110bInRs4" d="M297.84 327.07C294.85 325.06 289.8 324.13 288.57 327.99C287.35 331.84 295.89 331.37 297.42 331.44C298.96 331.5 303.58 331.46 308.41 334.85C306.3 333.3 300.84 329.09 297.84 327.07Z"/><path id="h30GUpQvrP" d="M-988.43 492.66C-988.35 492.45 -988.27 492.24 -988.19 492.04C-987.84 492.54 -987.81 492.41 -988.43 492.66Z"/><path id="a2N3MWrLC6" d="M337.37 324.47C341.08 323.56 351.09 324.59 346.23 327.57C341.37 330.55 335 327.22 327.97 331.24C329.85 329.89 333.66 325.38 337.37 324.47Z"/><path id="b1hhpVEgdh" d="M248.16 241.27C257.2 239.68 271.66 242.51 277.22 248.25C277.22 248.25 276.37 250.39 275.17 250.65C273.96 250.91 266.51 251.09 263.02 252.41C259.53 253.72 245.98 256.51 240.38 254.48C234.79 252.45 231.25 252.24 229.21 250.14C233 248.37 240.81 242.56 248.16 241.27Z"/><path id="b1a3uXEBvG" d="M226.79 254.07C228.14 252.94 231.74 249.06 235.14 247.08C238.53 245.09 244.11 242.01 253.96 241.24C263.82 240.47 272.57 246.39 273.81 247.75C273.81 247.75 273.41 251.76 270.57 251.64C270.57 251.64 282.98 252.04 284.17 252.09C285.35 252.14 281 248.45 277.99 246.88C274.98 245.32 264.69 239.44 255.22 239.63C245.74 239.83 239.78 240.76 227.09 249.94C221.83 253.86 219.53 255.18 219.53 255.18C220.98 254.96 225.44 255.19 226.79 254.07Z"/><path id="a7zziNyq6l" d="M229.18 250.73C229.18 250.73 240.9 256.43 250.54 255.06C260.19 253.69 264.78 251.4 267.39 251.27C270 251.14 277.12 250.73 277.12 250.73"/><path id="e2wCkMxgNQ" d="M361.94 243.39C365.25 240.57 372.53 236.26 385.03 237.49C397.52 238.72 407.65 245.54 410.89 247.45C414.12 249.36 414.44 250.2 409.38 249.63C409.38 249.63 404.66 249.08 401.21 249.53C401.21 249.53 406.19 246.59 401.44 244.12C396.69 241.65 392.87 239.36 384.75 238.43C376.63 237.5 369.52 239.89 364.3 243.37C359.09 246.85 361.37 248.45 363.97 248.56C363.97 248.56 358.22 249.83 358.65 248.34C359.31 247.35 358.62 246.21 361.94 243.39Z"/><path id="a1jFXJv2XE" d="M360.32 248.05C360.32 248.05 370.82 249.01 376.58 249.76C382.35 250.52 399.05 250.39 403.5 248.56"/><path id="eEmLdAZdn" d="M219.72 250.59C219.72 250.59 227.42 233.59 244.55 231.54C261.68 229.49 273.83 233.18 283.29 244.77"/><path id="a4z5lCYx8g" d="M345.63 248.46C345.63 248.46 356.37 239.69 359.14 236.33C361.9 232.97 369.92 228.1 385.47 229.7C401.03 231.29 413.57 237.03 419.38 245.2"/><path id="d7gcMHe9a" d="M240.21 243.63C238.09 243.91 237.03 245.82 236.53 246.49C235.77 247.51 236.3 247.62 236.3 250.24C236.3 252.3 236.23 252.27 236.53 253C236.9 253.9 237.82 254.27 240.21 254.26C242.11 254.26 246.64 255.3 249.64 255.3C252.89 255.3 257.6 253.26 259.68 253C261.25 252.8 262.25 252.74 262.9 252.52C264 252.15 264.06 251.31 264.06 248.54C264.06 246.02 263.88 245.61 263.46 244.6C263.23 244.04 263.81 242.85 262.26 242.08C259.29 240.6 256.8 240.83 252.81 240.83C249.47 240.83 242.97 243.27 240.21 243.63Z"/><path id="cEkLBfXQ2" d="M253.16 249.38C252.97 249.39 252.86 249.34 252.86 249.34C252.86 249.34 253.54 248.62 253.48 247.66C253.43 246.91 252.89 245.98 252.89 245.98C252.89 245.98 252.89 245.98 253.05 245.97C253.86 245.94 254.54 246.69 254.57 247.63C254.6 248.57 253.97 249.35 253.16 249.38Z"/><path id="e6OueaG6D" d="M381.67 246.24C381.49 246.25 381.37 246.2 381.37 246.2C381.37 246.2 382.06 245.48 381.99 244.53C381.94 243.78 381.41 242.84 381.41 242.84C381.41 242.84 381.41 242.84 381.57 242.84C382.38 242.81 383.06 243.55 383.09 244.49C383.12 245.43 382.49 246.22 381.67 246.24Z"/><path id="aFwGek678" d="M182.06 234.36C182.06 234.36 197.41 199.08 202.37 175.49C205.1 162.52 181.84 158.83 187.53 146.34C188.55 144.09 188.75 141.54 189.08 138.52C189.49 134.84 190.12 130.46 192.74 125.06C197.69 114.85 204.28 105.28 205.02 103.12C208.25 93.7 222.83 76.68 229.21 76.95C232.16 77.07 243.86 67.67 258.25 70.19C258.62 70.25 274.09 80.81 274.45 80.9C281.62 82.72 289.25 94.79 295.39 101.09C302.89 108.79 313.44 117.06 324.41 116.9C330.55 116.82 351.49 106.31 357.61 101.09C364.79 94.96 375.76 74.24 383.34 70.19C390.25 66.5 402.7 69.68 409.75 76.95C412.16 79.43 423.98 83.35 426.14 89.28C426.6 90.52 436.5 98.83 442.18 107.08C445.89 112.48 449.49 126.88 452.97 150.29C440.26 162.19 433.96 170.59 434.07 175.49C434.28 184.86 454.73 199.9 455.47 208.66C460.43 267.32 464.36 233.33 473.97 221.31C480.8 207.74 478.41 196.99 477.46 185.94C476.5 174.9 466.55 115.53 445.53 91.93C424.5 68.32 371.99 26.82 333.77 23.3C265.5 17.01 212.53 76.5 199.39 96.31C186.25 116.11 150.1 165.8 177.25 240.76C178.22 239.48 181.58 235 182.06 234.36Z"/><path id="b6BLYDoNX" d="M395.44 207.62L397.97 207.74L400.44 207.9L402.84 208.09L405.18 208.32L407.46 208.58L409.67 208.87L411.82 209.2L413.9 209.54L415.92 209.91L417.87 210.3L419.76 210.71L421.58 211.14L423.34 211.58L425.03 212.03L426.65 212.49L428.21 212.96L429.7 213.43L431.12 213.91L432.48 214.38L433.77 214.86L434.99 215.32L436.14 215.78L437.22 216.24L438.24 216.67L439.19 217.1L440.07 217.51L440.88 217.89L441.62 218.26L442.29 218.61L442.89 218.92L443.42 219.21L443.88 219.47L444.27 219.69L444.59 219.88L444.84 220.04L445.02 220.15L445.13 220.21L445.17 220.24L445.19 220.24L445.25 220.26L445.36 220.29L445.5 220.33L445.68 220.38L445.9 220.44L446.15 220.5L446.43 220.58L446.74 220.66L447.08 220.74L447.44 220.83L447.83 220.93L448.24 221.03L448.67 221.13L449.12 221.23L449.59 221.34L450.08 221.45L450.57 221.55L451.08 221.66L451.6 221.76L452.12 221.87L452.65 221.97L453.19 222.06L453.73 222.16L454.27 222.24L454.8 222.32L455.34 222.4L455.87 222.47L456.39 222.53L456.9 222.58L457.41 222.62L457.9 222.65L458.37 222.67L458.84 222.68L459.28 222.67L459.7 222.66L460.11 222.63L460.49 222.58L460.84 222.52L461.17 222.45L461.5 222.35L461.88 222.24L462.28 222.11L462.72 221.97L463.19 221.81L463.69 221.64L464.22 221.46L464.76 221.27L465.33 221.07L465.92 220.85L466.52 220.63L467.14 220.4L467.77 220.17L468.41 219.93L469.05 219.69L469.7 219.44L470.35 219.19L471 218.94L471.65 218.7L472.29 218.45L472.92 218.2L473.54 217.96L474.15 217.72L474.75 217.49L475.33 217.26L475.88 217.04L476.42 216.83L476.93 216.63L477.41 216.43L477.87 216.25L478.29 216.09L478.68 215.93L479.03 215.79L479.34 215.66L479.61 215.56L479.84 215.46L480.02 215.39L480.15 215.34L480.23 215.31L480.26 215.29L480.26 215.3L480.27 215.32L480.29 215.35L480.31 215.39L480.34 215.45L480.38 215.51L480.42 215.59L480.46 215.67L480.51 215.77L480.56 215.87L480.61 215.98L480.67 216.11L480.73 216.24L480.79 216.37L480.86 216.52L480.92 216.67L480.99 216.83L481.06 217L481.13 217.17L481.19 217.35L481.26 217.53L481.33 217.72L481.39 217.91L481.46 218.11L481.52 218.31L481.58 218.51L481.64 218.72L481.69 218.93L481.74 219.14L481.79 219.36L481.83 219.57L481.87 219.79L481.9 220.01L481.92 220.23L481.95 220.44L481.96 220.66L481.97 220.88L481.97 221.1L481.96 221.31L481.95 221.53L481.9 221.75L481.8 222.01L481.65 222.3L481.46 222.61L481.21 222.95L480.92 223.32L480.6 223.7L480.23 224.11L479.83 224.53L479.4 224.97L478.94 225.42L478.45 225.89L477.94 226.37L477.41 226.86L476.86 227.35L476.29 227.85L475.71 228.36L475.12 228.87L474.52 229.37L473.92 229.88L473.32 230.39L472.71 230.88L472.11 231.38L471.52 231.86L470.93 232.34L470.36 232.8L469.8 233.25L469.26 233.68L468.73 234.1L468.23 234.5L467.76 234.87L467.31 235.23L466.89 235.56L466.51 235.86L466.16 236.14L465.85 236.39L465.58 236.6L465.36 236.79L465.18 236.94L465.06 237.05L464.95 237.14L464.84 237.24L464.73 237.34L464.62 237.44L464.5 237.55L464.37 237.66L464.25 237.77L464.11 237.88L463.98 237.99L463.84 238.1L463.69 238.22L463.55 238.34L463.39 238.45L463.24 238.57L463.08 238.69L462.92 238.81L462.75 238.93L462.58 239.05L462.4 239.17L462.23 239.29L462.04 239.41L461.86 239.53L461.67 239.65L461.47 239.77L461.28 239.88L461.08 240L460.87 240.12L460.66 240.23L460.45 240.34L460.24 240.45L460.02 240.56L459.8 240.67L459.57 240.77L459.34 240.87L459.11 240.97L458.87 241.07L458.63 241.16L458.39 241.25L458.14 241.34L457.89 241.42L457.64 241.51L457.38 241.58L457.13 241.65L456.87 241.72L456.61 241.79L456.35 241.85L456.1 241.91L455.84 241.97L455.58 242.03L455.32 242.09L455.07 242.14L454.81 242.2L454.56 242.26L454.31 242.31L454.07 242.37L453.82 242.43L453.58 242.5L453.34 242.56L453.11 242.63L452.88 242.7L452.66 242.78L452.44 242.86L452.22 242.94L452.01 243.03L451.81 243.13L451.61 243.23L451.42 243.34L451.23 243.45L451.06 243.57L450.89 243.7L450.73 243.84L450.57 243.99L450.43 244.14L450.29 244.31L450.16 244.48L450.04 244.67L449.93 244.86L449.84 245.07L449.75 245.29L449.67 245.52L449.59 245.78L449.51 246.1L449.41 246.47L449.3 246.89L449.19 247.35L449.06 247.86L448.92 248.41L448.77 249.01L448.62 249.64L448.45 250.31L448.27 251.01L448.08 251.74L447.89 252.51L447.68 253.3L447.46 254.12L447.23 254.96L446.99 255.82L446.74 256.7L446.48 257.6L446.21 258.51L445.93 259.44L445.64 260.38L445.34 261.32L445.02 262.28L444.7 263.23L444.36 264.19L444.02 265.15L443.66 266.11L443.3 267.06L442.92 268.01L442.53 268.94L442.13 269.87L441.72 270.79L441.3 271.69L440.87 272.57L440.43 273.43L439.97 274.28L439.51 275.1L439.03 275.89L438.54 276.66L438.03 277.42L437.49 278.23L436.92 279.06L436.32 279.91L435.69 280.8L435.02 281.7L434.32 282.63L433.59 283.57L432.83 284.52L432.04 285.49L431.21 286.46L430.35 287.44L429.45 288.43L428.52 289.41L427.56 290.4L426.56 291.37L425.53 292.35L424.47 293.31L423.37 294.26L422.23 295.19L421.06 296.11L419.86 297.01L418.61 297.88L417.34 298.73L416.02 299.55L414.67 300.33L413.29 301.09L411.86 301.81L410.4 302.49L408.91 303.13L407.37 303.72L405.8 304.27L404.19 304.77L402.54 305.22L400.85 305.61L399.13 305.94L397.36 306.22L395.56 306.43L393.72 306.58L391.83 306.66L389.94 306.67L388.06 306.61L386.21 306.49L384.37 306.31L382.55 306.07L380.75 305.77L378.97 305.42L377.22 305.01L375.49 304.56L373.79 304.05L372.12 303.5L370.47 302.91L368.85 302.27L367.26 301.6L365.71 300.89L364.19 300.14L362.7 299.36L361.24 298.55L359.82 297.72L358.44 296.86L357.09 295.97L355.79 295.06L354.52 294.14L353.3 293.2L352.12 292.24L350.98 291.28L349.89 290.3L348.84 289.31L347.84 288.33L346.89 287.33L345.98 286.34L345.13 285.35L344.33 284.36L343.58 283.38L342.89 282.41L342.25 281.44L341.66 280.5L341.14 279.56L340.67 278.65L340.26 277.75L339.88 276.86L339.5 275.96L339.12 275.05L338.74 274.14L338.37 273.22L338 272.3L337.64 271.37L337.28 270.44L336.93 269.51L336.58 268.58L336.24 267.64L335.91 266.71L335.59 265.78L335.28 264.85L334.98 263.92L334.69 263L334.41 262.09L334.14 261.18L333.89 260.27L333.66 259.38L333.44 258.49L333.23 257.62L333.04 256.75L332.87 255.9L332.72 255.06L332.58 254.23L332.47 253.41L332.38 252.61L332.3 251.83L332.25 251.07L332.22 250.32L332.22 249.59L332.24 248.88L332.28 248.19L332.36 247.53L332.45 246.88L332.58 246.26L332.73 245.66L332.91 245.09L333.12 244.55L333.34 244.02L333.52 243.52L333.69 243.03L333.83 242.56L333.94 242.11L334.03 241.67L334.11 241.25L334.16 240.84L334.19 240.45L334.2 240.08L334.19 239.72L334.17 239.37L334.13 239.04L334.07 238.73L334 238.43L333.92 238.14L333.82 237.86L333.71 237.6L333.58 237.35L333.45 237.12L333.31 236.89L333.15 236.68L332.99 236.48L332.82 236.29L332.65 236.12L332.46 235.95L332.28 235.79L332.08 235.65L331.89 235.51L331.69 235.38L331.49 235.27L331.29 235.16L331.09 235.06L330.89 234.97L330.69 234.88L330.5 234.81L330.3 234.74L330.12 234.68L329.93 234.63L329.75 234.58L329.56 234.53L329.34 234.47L329.08 234.39L328.79 234.3L328.48 234.2L328.13 234.1L327.75 233.98L327.34 233.87L326.9 233.75L326.43 233.63L325.93 233.51L325.4 233.39L324.84 233.27L324.25 233.16L323.64 233.06L322.99 232.96L322.32 232.88L321.62 232.81L320.89 232.75L320.14 232.7L319.36 232.67L318.55 232.66L317.71 232.67L316.85 232.71L315.96 232.76L315.05 232.84L314.11 232.95L313.15 233.08L312.16 233.24L311.14 233.44L310.1 233.67L309.04 233.93L307.95 234.23L306.84 234.56L305.7 234.94L304.55 235.36L303.37 235.82L302.16 236.32L300.94 236.87L299.69 237.47L299.53 237.78L299.39 238.07L299.26 238.36L299.15 238.64L299.05 238.91L298.96 239.18L298.89 239.43L298.83 239.68L298.78 239.92L298.74 240.15L298.72 240.37L298.7 240.59L298.69 240.81L298.7 241.01L298.71 241.22L298.73 241.41L298.76 241.61L298.79 241.79L298.83 241.98L298.88 242.16L298.94 242.33L299 242.51L299.07 242.68L299.14 242.85L299.21 243.01L299.29 243.18L299.37 243.34L299.46 243.5L299.55 243.66L299.64 243.83L299.73 243.99L299.82 244.15L299.91 244.31L300.01 244.47L300.1 244.64L300.19 244.8L300.28 244.97L300.37 245.14L300.45 245.31L300.54 245.49L300.61 245.67L300.69 245.85L300.76 246.04L300.83 246.24L300.9 246.44L300.96 246.65L301.02 246.86L301.08 247.08L301.13 247.31L301.18 247.54L301.22 247.78L301.26 248.03L301.3 248.29L301.33 248.55L301.36 248.82L301.38 249.1L301.4 249.38L301.42 249.68L301.43 249.98L301.44 250.29L301.45 250.61L301.45 250.94L301.45 251.28L301.44 251.62L301.42 251.98L301.41 252.35L301.39 252.72L301.36 253.11L301.33 253.5L301.3 253.91L301.26 254.33L301.22 254.75L301.17 255.19L301.11 255.64L301.06 256.1L300.99 256.57L300.93 257.06L300.86 257.55L300.78 258.06L300.7 258.58L300.6 259.13L300.47 259.72L300.31 260.36L300.12 261.04L299.91 261.76L299.67 262.51L299.4 263.3L299.11 264.12L298.8 264.97L298.47 265.84L298.12 266.74L297.75 267.65L297.37 268.59L296.97 269.54L296.55 270.5L296.12 271.47L295.68 272.46L295.23 273.44L294.77 274.43L294.3 275.42L293.82 276.41L293.34 277.39L292.85 278.36L292.36 279.33L291.86 280.28L291.37 281.22L290.87 282.14L290.38 283.03L289.89 283.91L289.4 284.76L288.92 285.58L288.44 286.37L287.97 287.13L287.51 287.85L287.06 288.54L286.62 289.18L286.2 289.78L285.79 290.34L285.39 290.84L285.01 291.3L284.61 291.74L284.17 292.22L283.69 292.72L283.16 293.25L282.59 293.8L281.98 294.38L281.34 294.97L280.65 295.58L279.92 296.2L279.16 296.83L278.36 297.47L277.52 298.12L276.65 298.77L275.74 299.42L274.81 300.07L273.84 300.72L272.84 301.36L271.8 302L270.74 302.62L269.65 303.23L268.54 303.82L267.39 304.4L266.22 304.95L265.03 305.48L263.81 305.99L262.56 306.47L261.3 306.92L260.01 307.33L258.7 307.71L257.37 308.05L256.03 308.35L254.66 308.61L253.28 308.82L251.88 308.99L250.47 309.1L249.04 309.16L247.6 309.17L246.15 309.12L244.68 309.01L243.2 308.84L241.72 308.62L240.25 308.38L238.78 308.12L237.31 307.82L235.86 307.51L234.41 307.17L232.97 306.8L231.55 306.41L230.13 305.99L228.73 305.55L227.34 305.08L225.96 304.59L224.6 304.07L223.26 303.52L221.93 302.95L220.61 302.35L219.32 301.72L218.05 301.07L216.79 300.4L215.56 299.69L214.35 298.96L213.16 298.21L212 297.42L210.86 296.61L209.75 295.77L208.66 294.91L207.6 294.02L206.57 293.1L205.57 292.15L204.59 291.18L203.65 290.18L202.74 289.15L201.86 288.09L201.02 287.01L200.21 285.89L199.44 284.75L198.7 283.58L198 282.39L197.34 281.16L196.71 279.91L196.12 278.65L195.54 277.41L194.99 276.18L194.45 274.98L193.93 273.8L193.42 272.63L192.94 271.49L192.47 270.37L192.02 269.28L191.59 268.21L191.17 267.16L190.77 266.14L190.39 265.14L190.02 264.17L189.67 263.23L189.33 262.32L189.01 261.43L188.71 260.57L188.42 259.75L188.15 258.95L187.89 258.19L187.65 257.46L187.42 256.76L187.21 256.1L187.01 255.47L186.83 254.88L186.66 254.32L186.5 253.8L186.36 253.32L186.23 252.87L186.11 252.46L186.01 252.1L185.92 251.77L185.84 251.49L185.77 251.24L185.72 251.04L185.68 250.89L185.65 250.77L185.63 250.7L185.63 250.68L185.62 250.67L185.61 250.65L185.59 250.61L185.55 250.56L185.51 250.49L185.46 250.41L185.4 250.32L185.32 250.22L185.24 250.11L185.15 249.99L185.04 249.85L184.93 249.72L184.8 249.57L184.66 249.41L184.51 249.26L184.35 249.09L184.18 248.92L184 248.75L183.8 248.57L183.59 248.39L183.37 248.21L183.14 248.03L182.89 247.85L182.64 247.67L182.36 247.49L182.08 247.31L181.78 247.13L181.47 246.96L181.14 246.8L180.8 246.63L180.45 246.48L180.08 246.33L179.7 246.19L179.31 246.05L178.89 245.93L178.47 245.81L178.03 245.7L177.57 245.61L177.1 245.52L176.61 245.45L176.14 245.36L175.7 245.22L175.29 245.04L174.92 244.82L174.58 244.55L174.27 244.25L173.99 243.91L173.74 243.54L173.52 243.14L173.32 242.71L173.15 242.25L173 241.77L172.87 241.28L172.77 240.76L172.68 240.23L172.62 239.69L172.57 239.14L172.53 238.58L172.52 238.02L172.51 237.45L172.52 236.88L172.54 236.32L172.57 235.76L172.6 235.21L172.65 234.67L172.7 234.14L172.75 233.63L172.81 233.14L172.88 232.66L172.94 232.21L173 231.78L173.07 231.39L173.13 231.02L173.18 230.69L173.24 230.39L173.28 230.13L173.32 229.91L173.35 229.73L173.37 229.6L173.38 229.52L173.61 229.44L173.86 229.37L174.13 229.29L174.4 229.21L174.69 229.13L174.98 229.04L175.29 228.96L175.61 228.87L175.94 228.78L176.28 228.69L176.62 228.6L176.98 228.5L177.34 228.41L177.71 228.31L178.09 228.2L178.48 228.1L178.87 227.99L179.27 227.88L179.68 227.76L180.09 227.65L180.5 227.53L180.92 227.41L181.34 227.28L181.77 227.15L182.2 227.02L182.63 226.88L183.07 226.74L183.51 226.6L183.95 226.45L184.39 226.3L184.83 226.15L185.27 225.99L185.71 225.83L186.15 225.66L186.59 225.49L187.03 225.31L187.47 225.13L187.9 224.95L188.33 224.76L188.76 224.57L189.21 224.36L189.71 224.14L190.25 223.9L190.82 223.64L191.44 223.37L192.09 223.09L192.78 222.79L193.49 222.48L194.24 222.15L195.01 221.82L195.8 221.48L196.62 221.13L197.45 220.78L198.3 220.42L199.17 220.05L200.05 219.68L200.94 219.31L201.84 218.94L202.74 218.57L203.64 218.19L204.55 217.82L205.45 217.45L206.35 217.09L207.25 216.73L208.13 216.38L209.01 216.03L209.87 215.7L210.72 215.37L211.55 215.05L212.35 214.75L213.14 214.45L213.9 214.17L214.64 213.9L215.34 213.65L216.02 213.42L216.65 213.21L217.26 213.01L217.82 212.83L218.35 212.67L218.83 212.54L219.32 212.42L219.87 212.3L220.49 212.18L221.17 212.07L221.9 211.96L222.68 211.86L223.51 211.76L224.38 211.66L225.3 211.57L226.26 211.48L227.25 211.4L228.27 211.32L229.33 211.24L230.4 211.17L231.51 211.11L232.63 211.05L233.76 211L234.91 210.95L236.07 210.91L237.24 210.87L238.41 210.84L239.58 210.82L240.75 210.8L241.91 210.79L243.06 210.78L244.2 210.79L245.32 210.8L246.42 210.81L247.5 210.84L248.56 210.87L249.58 210.91L250.57 210.96L251.53 211.02L252.45 211.08L253.33 211.15L254.16 211.24L254.95 211.33L255.68 211.43L256.36 211.53L256.98 211.65L257.59 211.79L258.26 211.95L258.98 212.13L259.75 212.34L260.56 212.58L261.41 212.83L262.3 213.1L263.23 213.39L264.19 213.7L265.19 214.02L266.21 214.37L267.25 214.72L268.32 215.09L269.41 215.47L270.52 215.86L271.64 216.26L272.78 216.67L273.92 217.09L275.07 217.51L276.23 217.94L277.38 218.37L278.54 218.8L279.69 219.24L280.83 219.68L281.97 220.12L283.09 220.55L284.2 220.98L285.29 221.41L286.36 221.84L287.41 222.25L288.43 222.66L289.42 223.07L290.39 223.46L291.31 223.84L292.21 224.21L293.06 224.56L293.87 224.91L294.64 225.23L295.36 225.55L296.03 225.84L296.05 225.83L296.11 225.82L296.22 225.79L296.36 225.75L296.53 225.71L296.75 225.65L297 225.59L297.28 225.52L297.6 225.45L297.95 225.37L298.33 225.29L298.74 225.2L299.19 225.1L299.66 225.01L300.15 224.91L300.68 224.81L301.23 224.71L301.8 224.61L302.4 224.51L303.02 224.41L303.66 224.32L304.32 224.22L305 224.13L305.69 224.04L306.41 223.96L307.14 223.88L307.89 223.81L308.65 223.74L309.42 223.68L310.21 223.63L311 223.59L311.81 223.56L312.62 223.53L313.45 223.52L314.28 223.52L315.11 223.53L315.95 223.55L316.8 223.58L317.64 223.63L318.49 223.7L319.32 223.76L320.11 223.82L320.86 223.88L321.58 223.93L322.25 223.97L322.9 224.01L323.51 224.04L324.09 224.07L324.64 224.09L325.16 224.11L325.65 224.12L326.12 224.13L326.56 224.14L326.98 224.15L327.37 224.15L327.75 224.15L328.1 224.15L328.44 224.15L328.76 224.14L329.07 224.14L329.36 224.13L329.64 224.13L329.9 224.12L330.16 224.12L330.41 224.11L330.65 224.11L330.88 224.11L331.11 224.1L331.33 224.11L331.56 224.11L331.78 224.12L332 224.12L332.23 224.14L332.46 224.15L332.69 224.17L332.93 224.2L333.17 224.23L333.43 224.26L333.69 224.3L333.97 224.34L334.25 224.39L334.52 224.43L334.78 224.47L335.03 224.5L335.28 224.53L335.51 224.56L335.75 224.58L335.97 224.6L336.19 224.62L336.4 224.63L336.61 224.64L336.81 224.64L337 224.64L337.19 224.64L337.38 224.64L337.56 224.63L337.73 224.62L337.91 224.6L338.08 224.59L338.24 224.57L338.41 224.54L338.57 224.52L338.72 224.49L338.88 224.45L339.03 224.42L339.19 224.38L339.34 224.34L339.49 224.3L339.64 224.25L339.79 224.2L339.94 224.15L340.09 224.1L340.24 224.04L340.39 223.98L340.54 223.92L340.7 223.86L340.85 223.79L341.01 223.73L341.17 223.66L341.33 223.59L341.51 223.49L341.73 223.34L341.97 223.14L342.26 222.9L342.59 222.61L342.95 222.29L343.36 221.93L343.81 221.53L344.3 221.11L344.84 220.65L345.43 220.17L346.07 219.67L346.76 219.15L347.5 218.61L348.29 218.05L349.14 217.49L350.05 216.91L351.02 216.33L352.04 215.74L353.13 215.16L354.28 214.57L355.49 213.99L356.78 213.42L358.13 212.86L359.54 212.31L361.03 211.78L362.6 211.26L364.23 210.77L365.94 210.3L367.73 209.86L369.6 209.45L371.54 209.07L373.57 208.72L375.68 208.42L377.88 208.15L380.16 207.93L382.53 207.75L384.99 207.62L387.54 207.54L390.19 207.52L392.84 207.55L395.44 207.62ZM236.62 216.53L235.01 216.63L233.42 216.76L231.84 216.92L230.29 217.13L228.76 217.36L227.25 217.63L225.76 217.94L224.3 218.28L222.86 218.65L221.45 219.06L220.07 219.5L218.71 219.97L217.39 220.47L216.09 221L214.83 221.56L213.6 222.15L212.41 222.77L211.25 223.42L210.13 224.09L209.04 224.8L207.99 225.53L206.99 226.28L206.02 227.06L205.09 227.87L204.21 228.7L203.37 229.56L202.58 230.44L201.83 231.34L201.13 232.26L200.48 233.21L199.88 234.18L199.33 235.17L198.83 236.18L198.39 237.21L197.98 238.27L197.62 239.37L197.29 240.5L196.99 241.66L196.73 242.86L196.5 244.09L196.31 245.34L196.16 246.62L196.04 247.92L195.96 249.24L195.91 250.58L195.9 251.93L195.92 253.3L195.97 254.68L196.07 256.07L196.19 257.47L196.35 258.88L196.55 260.28L196.78 261.69L197.05 263.1L197.35 264.51L197.68 265.91L198.06 267.3L198.46 268.68L198.9 270.05L199.38 271.41L199.89 272.75L200.43 274.08L201.01 275.38L201.62 276.66L202.27 277.92L202.95 279.15L203.67 280.36L204.42 281.53L205.2 282.67L206.02 283.77L206.88 284.84L207.76 285.86L208.69 286.85L209.64 287.79L210.63 288.69L211.63 289.55L212.65 290.38L213.68 291.17L214.72 291.92L215.77 292.64L216.84 293.33L217.9 293.98L218.97 294.6L220.04 295.19L221.1 295.74L222.17 296.27L223.22 296.77L224.27 297.24L225.31 297.68L226.33 298.09L227.34 298.48L228.33 298.84L229.3 299.18L230.25 299.5L231.17 299.79L232.07 300.06L232.94 300.31L233.78 300.54L234.58 300.74L235.35 300.93L236.08 301.1L236.78 301.26L237.42 301.39L238.03 301.51L238.59 301.62L239.09 301.71L239.55 301.79L239.95 301.85L240.3 301.9L240.59 301.94L240.82 301.97L240.99 301.99L241.09 302.01L241.12 302.01L241.69 301.83L242.28 301.67L242.91 301.53L243.56 301.42L244.25 301.33L244.97 301.25L245.71 301.18L246.47 301.13L247.26 301.08L248.08 301.04L248.91 301L249.77 300.96L250.65 300.92L251.54 300.87L252.46 300.81L253.39 300.74L254.33 300.66L255.29 300.56L256.26 300.44L257.24 300.3L258.24 300.14L259.24 299.95L260.25 299.72L261.27 299.47L262.29 299.18L263.32 298.85L264.35 298.48L265.38 298.07L266.42 297.61L267.45 297.1L268.49 296.54L269.52 295.93L270.55 295.26L271.57 294.53L272.59 293.74L273.6 292.88L274.6 291.95L275.59 290.96L276.57 289.89L277.54 288.74L278.49 287.55L279.41 286.34L280.29 285.13L281.14 283.9L281.96 282.66L282.75 281.41L283.5 280.15L284.22 278.89L284.91 277.62L285.57 276.34L286.19 275.06L286.78 273.78L287.33 272.5L287.86 271.21L288.34 269.93L288.8 268.65L289.22 267.37L289.6 266.09L289.95 264.82L290.27 263.55L290.55 262.29L290.8 261.04L291.01 259.79L291.19 258.56L291.33 257.33L291.44 256.12L291.51 254.92L291.54 253.74L291.54 252.57L291.5 251.42L291.43 250.28L291.32 249.16L291.18 248.07L291 246.99L290.78 245.93L290.52 244.9L290.23 243.89L289.9 242.9L289.53 241.94L289.13 241.01L288.69 240.09L288.22 239.19L287.71 238.29L287.18 237.4L286.61 236.53L286.01 235.67L285.37 234.82L284.71 233.98L284.01 233.16L283.28 232.35L282.52 231.55L281.73 230.77L280.9 230L280.05 229.25L279.16 228.51L278.23 227.79L277.28 227.09L276.3 226.41L275.28 225.74L274.23 225.09L273.15 224.46L272.03 223.85L270.89 223.27L269.71 222.7L268.51 222.15L267.27 221.62L265.99 221.12L264.69 220.64L263.35 220.18L261.99 219.74L260.59 219.33L259.16 218.94L257.7 218.58L256.2 218.24L254.68 217.93L253.12 217.65L251.54 217.39L249.92 217.16L248.27 216.96L246.58 216.78L244.89 216.64L243.21 216.54L241.54 216.48L239.88 216.46L238.24 216.48L236.62 216.53ZM392.44 212.94L390.03 212.97L387.65 213.07L385.32 213.24L383.03 213.48L380.79 213.78L378.59 214.16L376.45 214.6L374.35 215.11L372.3 215.68L370.31 216.32L368.37 217.02L366.49 217.79L364.67 218.61L362.9 219.5L361.2 220.45L359.56 221.46L357.98 222.52L356.46 223.64L355.02 224.82L353.64 226.06L352.33 227.34L351.09 228.69L349.92 230.08L348.83 231.53L347.82 233.03L346.88 234.58L346.02 236.18L345.24 237.83L344.54 239.53L343.92 241.27L343.39 243.06L342.95 244.9L342.59 246.78L342.32 248.7L342.14 250.67L342.06 252.67L342.07 254.72L342.17 256.81L342.37 258.94L342.67 261.11L343.05 263.25L343.5 265.31L344.02 267.3L344.6 269.2L345.24 271.04L345.93 272.79L346.69 274.48L347.5 276.09L348.35 277.64L349.26 279.11L350.22 280.53L351.22 281.87L352.26 283.16L353.34 284.38L354.46 285.54L355.61 286.65L356.79 287.7L358.01 288.69L359.25 289.64L360.52 290.53L361.82 291.37L363.13 292.16L364.47 292.91L365.81 293.61L367.18 294.27L368.55 294.89L369.94 295.47L371.33 296.01L372.73 296.51L374.13 296.98L375.52 297.41L376.92 297.81L378.31 298.19L379.7 298.53L381.07 298.85L382.44 299.14L383.79 299.41L385.12 299.66L386.44 299.89L387.73 300.1L389.02 300.26L390.32 300.35L391.62 300.37L392.93 300.32L394.24 300.21L395.54 300.05L396.85 299.82L398.15 299.55L399.45 299.22L400.74 298.86L402.01 298.45L403.28 298L404.52 297.52L405.76 297.02L406.97 296.48L408.16 295.92L409.33 295.34L410.47 294.75L411.58 294.14L412.66 293.53L413.71 292.91L414.73 292.29L415.71 291.67L416.66 291.06L417.56 290.45L418.42 289.86L419.23 289.29L420 288.73L420.72 288.2L421.38 287.7L422 287.23L422.55 286.79L423.05 286.39L423.49 286.03L423.87 285.72L424.19 285.45L424.44 285.24L424.62 285.09L424.72 284.99L424.76 284.96L424.79 284.93L424.88 284.85L425.03 284.73L425.23 284.54L425.48 284.31L425.77 284.02L426.11 283.69L426.48 283.29L426.9 282.85L427.34 282.35L427.81 281.8L428.31 281.2L428.83 280.54L429.37 279.83L429.92 279.07L430.49 278.25L431.06 277.38L431.64 276.45L432.23 275.47L432.81 274.44L433.38 273.35L433.95 272.2L434.5 271.01L435.04 269.75L435.56 268.44L436.06 267.08L436.53 265.66L436.97 264.18L437.39 262.65L437.76 261.06L438.1 259.42L438.39 257.72L438.64 255.97L438.84 254.16L438.99 252.29L439.08 250.36L439.11 248.38L439.07 246.34L438.98 244.24L438.81 242.09L438.48 239.89L438.02 237.8L437.42 235.83L436.69 233.96L435.85 232.19L434.9 230.53L433.85 228.97L432.7 227.5L431.46 226.12L430.15 224.84L428.76 223.64L427.31 222.52L425.81 221.48L424.26 220.52L422.66 219.64L421.04 218.83L419.39 218.08L417.72 217.4L416.04 216.79L414.37 216.23L412.7 215.73L411.04 215.28L409.4 214.88L407.8 214.53L406.23 214.23L404.71 213.96L403.24 213.74L401.82 213.55L400.48 213.39L399.22 213.26L398.03 213.16L396.94 213.09L395.95 213.03L395.07 212.99L394.3 212.96L393.65 212.95L393.14 212.94L392.76 212.94L392.52 212.94L392.44 212.94Z"/><path id="b1lQyv4T0F" d="M332.44 340.1C341.86 335.15 378.77 331.35 404.17 350.75C429.57 370.16 396.78 365.13 391.42 363.02C386.07 360.91 342.28 347.67 324.54 363.92C326.12 359.15 323.03 345.05 332.44 340.1Z"/><path id="a7JVV3XhP" d="M310.19 338.93C299.92 336.16 263.08 340.54 242.54 365.04C222.01 389.54 252.9 377.45 257.67 374.21C262.43 370.98 302.25 348.47 323.13 360.44C320.54 356.13 320.46 341.7 310.19 338.93Z"/></defs><g><g><g><use fill="#e5c7a7" fill-opacity="1" opacity="1" xlink:href="#bfi0Gy0IU"/><g><use fill-opacity="0" stroke="#000" stroke-opacity="0" stroke-width="1" opacity="1" xlink:href="#bfi0Gy0IU"/></g></g><g><use fill="#e5c7a7" fill-opacity="1" opacity="1" xlink:href="#b1ryt71zjA"/><g><use fill-opacity="0" stroke="#000" stroke-opacity="0" stroke-width="1" opacity="1" xlink:href="#b1ryt71zjA"/></g></g><g><use fill="#c0a78c" fill-opacity="1" opacity="1" xlink:href="#l15h9L4zi"/><g><use fill-opacity="0" stroke="#000" stroke-opacity="0" stroke-width="1" opacity="1" xlink:href="#l15h9L4zi"/></g></g><g><use fill="#488f84" fill-opacity="1" opacity="1" xlink:href="#ab1hsebzX"/><g><use fill-opacity="0" stroke="#000" stroke-opacity="1" stroke-width="0" opacity="1" xlink:href="#ab1hsebzX"/></g></g><g><use fill="#d6d6d6" fill-opacity="1" opacity="1" xlink:href="#b2qcrGcdma"/><g><use fill-opacity="0" stroke="#000" stroke-opacity="0" stroke-width="1" opacity="1" xlink:href="#b2qcrGcdma"/></g></g><g><use fill="#d6d6d6" fill-opacity="1" opacity="1" xlink:href="#bxYk8LEWy"/><g><use fill-opacity="0" stroke="#000" stroke-opacity="0" stroke-width="1" opacity="1" xlink:href="#bxYk8LEWy"/></g></g><g><use fill="#000" fill-opacity="0" opacity="1" xlink:href="#c72aEYNgkD"/><g><use fill-opacity="0" stroke="#1c413a" stroke-opacity="1" stroke-width="1" opacity="1" xlink:href="#c72aEYNgkD"/></g></g><g><use fill="#205d54" fill-opacity="1" opacity="1" xlink:href="#c2xf2ePzfG"/><g><use fill-opacity="0" stroke="#0b4135" stroke-opacity="1" stroke-width="1" opacity="1" xlink:href="#c2xf2ePzfG"/></g></g><g><use fill="#000" fill-opacity="0" opacity="1" xlink:href="#a4Q842wTzZ"/><g><use fill-opacity="0" stroke="#000" stroke-opacity="1" stroke-width="1" opacity="1" xlink:href="#a4Q842wTzZ"/></g></g><g><use fill="#000" fill-opacity="0" opacity="1" xlink:href="#cUw0WHSlw"/><g><use fill-opacity="0" stroke="#020202" stroke-opacity="1" stroke-width="1" opacity="1" xlink:href="#cUw0WHSlw"/></g></g><g><use fill="#f4f4f4" fill-opacity="1" opacity="1" xlink:href="#a7OwV3KdzT"/><g><use fill-opacity="0" stroke="#000" stroke-opacity="0" stroke-width="1" opacity="1" xlink:href="#a7OwV3KdzT"/></g></g><g><use fill="#f4f4f4" fill-opacity="1" opacity="1" xlink:href="#a188PmE3kE"/><g><use fill-opacity="0" stroke="#000" stroke-opacity="0" stroke-width="1" opacity="1" xlink:href="#a188PmE3kE"/></g></g><g><use fill="#e5c7a7" fill-opacity="1" opacity="1" xlink:href="#bpcPPAb8"/><g><use fill-opacity="0" stroke="#000" stroke-opacity="1" stroke-width="0" opacity="1" xlink:href="#bpcPPAb8"/></g></g><g><use fill="#e5c7a7" fill-opacity="1" opacity="1" xlink:href="#e2n74rafxa"/><g><use fill-opacity="0" stroke="#000" stroke-opacity="1" stroke-width="0" opacity="1" xlink:href="#e2n74rafxa"/></g></g><g><use fill="#000" fill-opacity="0" opacity="1" xlink:href="#a2lKd3i4OG"/><g><use fill-opacity="0" stroke="#231f20" stroke-opacity="1" stroke-width="1" opacity="1" xlink:href="#a2lKd3i4OG"/></g></g><g><use fill="#000" fill-opacity="0" opacity="1" xlink:href="#cWwtBw7mI"/><g><use fill-opacity="0" stroke="#231f20" stroke-opacity="1" stroke-width="1" opacity="1" xlink:href="#cWwtBw7mI"/></g></g><g><use fill="#000" fill-opacity="0" opacity="1" xlink:href="#eIUt2pWwf"/><g><use fill-opacity="0" stroke="#231f20" stroke-opacity="1" stroke-width="1" opacity="1" xlink:href="#eIUt2pWwf"/></g></g><g><use fill="#e5b69b" fill-opacity="1" opacity="1" xlink:href="#aptFmGFWq"/><g><use fill-opacity="0" stroke="#000" stroke-opacity="0" stroke-width="1" opacity="1" xlink:href="#aptFmGFWq"/></g></g><g><use fill="#383534" fill-opacity="1" opacity=".93" xlink:href="#c1pblBxs5k"/><g><use fill-opacity="0" stroke="#000" stroke-opacity="0" stroke-width="1" opacity=".93" xlink:href="#c1pblBxs5k"/></g></g><g><use fill="#050505" fill-opacity="1" opacity="1" xlink:href="#cojhaLVbO"/><g><use fill-opacity="0" stroke="#000" stroke-opacity="0" stroke-width="1" opacity="1" xlink:href="#cojhaLVbO"/></g></g><g><use fill="#383534" fill-opacity="1" opacity="1" xlink:href="#a3j6E410HC"/><g><use fill-opacity="0" stroke="#000" stroke-opacity="0" stroke-width="1" opacity="1" xlink:href="#a3j6E410HC"/></g></g><g><use fill="#383534" fill-opacity="1" opacity="1" xlink:href="#b2XOXmCmXl"/><g><use fill-opacity="0" stroke="#000" stroke-opacity="0" stroke-width="1" opacity="1" xlink:href="#b2XOXmCmXl"/></g></g><g><use fill="#050505" fill-opacity="1" opacity="1" xlink:href="#cNfZHVeQU"/><g><use fill-opacity="0" stroke="#000" stroke-opacity="0" stroke-width="1" opacity="1" xlink:href="#cNfZHVeQU"/></g></g><g><use fill="#050505" fill-opacity="1" opacity="1" xlink:href="#ctRru4IVr"/><g><use fill-opacity="0" stroke="#000" stroke-opacity="0" stroke-width="1" opacity="1" xlink:href="#ctRru4IVr"/></g></g><g><use fill="#c48796" fill-opacity="1" opacity="1" xlink:href="#a1hwCCw8dm"/><g><use fill-opacity="0" stroke="#000" stroke-opacity="0" stroke-width="1" opacity="1" xlink:href="#a1hwCCw8dm"/></g></g><g><use fill="#fff" fill-opacity="1" opacity="1" xlink:href="#mmpQhF6Vz"/><g><use fill-opacity="0" stroke="#000" stroke-opacity="0" stroke-width="1" opacity="1" xlink:href="#mmpQhF6Vz"/></g></g><g><use fill="#383534" fill-opacity="1" opacity="1" xlink:href="#a2BMXoH0ex"/></g><g><use fill="#d3abb8" fill-opacity="1" opacity="1" xlink:href="#a62rz7c5sM"/><g><use fill-opacity="0" stroke="#000" stroke-opacity="0" stroke-width="1" opacity="1" xlink:href="#a62rz7c5sM"/></g></g><g><use fill="#d3abb8" fill-opacity="1" opacity="1" xlink:href="#b3PNfEul1"/><g><use fill-opacity="0" stroke="#000" stroke-opacity="0" stroke-width="1" opacity="1" xlink:href="#b3PNfEul1"/></g></g><g><use fill="#231f20" fill-opacity="1" opacity="1" xlink:href="#aSLjlRRpp"/><g><use fill-opacity="0" stroke="#000" stroke-opacity="0" stroke-width="1" opacity="1" xlink:href="#aSLjlRRpp"/></g></g><g><use fill="#231f20" fill-opacity="1" opacity="1" xlink:href="#c33jIhbEV2"/><g><use fill-opacity="0" stroke="#000" stroke-opacity="0" stroke-width="1" opacity="1" xlink:href="#c33jIhbEV2"/></g></g><g><use fill="#231f20" fill-opacity="1" opacity="1" xlink:href="#b7ctfNVwpE"/><g><use fill-opacity="0" stroke="#000" stroke-opacity="0" stroke-width="1" opacity="1" xlink:href="#b7ctfNVwpE"/></g></g><g><use fill="#231f20" fill-opacity="1" opacity="1" xlink:href="#b12XBApv0E"/><g><use fill-opacity="0" stroke="#000" stroke-opacity="0" stroke-width="1" opacity="1" xlink:href="#b12XBApv0E"/></g></g><g><use fill="#231f20" fill-opacity="1" opacity="1" xlink:href="#bN0PtZI4M"/><g><use fill-opacity="0" stroke="#000" stroke-opacity="0" stroke-width="1" opacity="1" xlink:href="#bN0PtZI4M"/></g></g><g><use fill="#231f20" fill-opacity="1" opacity="1" xlink:href="#j110bInRs4"/><g><use fill-opacity="0" stroke="#000" stroke-opacity="0" stroke-width="1" opacity="1" xlink:href="#j110bInRs4"/></g></g><g><use fill="#050505" fill-opacity="1" opacity="1" xlink:href="#h30GUpQvrP"/><g><use fill-opacity="0" stroke="#000" stroke-opacity="0" stroke-width="1" opacity="1" xlink:href="#h30GUpQvrP"/></g></g><g><use fill="#231f20" fill-opacity="1" opacity="1" xlink:href="#a2N3MWrLC6"/><g><use fill-opacity="0" stroke="#000" stroke-opacity="0" stroke-width="1" opacity="1" xlink:href="#a2N3MWrLC6"/></g></g><g><use fill="#fff" fill-opacity="1" opacity="1" xlink:href="#b1hhpVEgdh"/><g><use fill-opacity="0" stroke="#000" stroke-opacity="0" stroke-width="1" opacity="1" xlink:href="#b1hhpVEgdh"/></g></g><g><use fill="#000" fill-opacity="1" opacity="1" xlink:href="#b1a3uXEBvG"/><g><use fill-opacity="0" stroke="#000" stroke-opacity="0" stroke-width="1" opacity="1" xlink:href="#b1a3uXEBvG"/></g></g><g><use fill="#000" fill-opacity="0" opacity="1" xlink:href="#a7zziNyq6l"/><g><use fill-opacity="0" stroke="#000" stroke-opacity="1" stroke-width=".6" opacity="1" xlink:href="#a7zziNyq6l"/></g></g><g><use fill="#000" fill-opacity="1" opacity="1" xlink:href="#e2wCkMxgNQ"/><g><use fill-opacity="0" stroke="#000" stroke-opacity="0" stroke-width="1" opacity="1" xlink:href="#e2wCkMxgNQ"/></g></g><g><use fill="#000" fill-opacity="0" opacity="1" xlink:href="#a1jFXJv2XE"/><g><use fill-opacity="0" stroke="#000" stroke-opacity="1" stroke-width=".6" opacity="1" xlink:href="#a1jFXJv2XE"/></g></g><g><use fill="#000" fill-opacity="0" opacity="1" xlink:href="#eEmLdAZdn"/><g><use fill-opacity="0" stroke="#000" stroke-opacity="1" stroke-width=".6" opacity="1" xlink:href="#eEmLdAZdn"/></g></g><g><use fill="#000" fill-opacity="0" opacity="1" xlink:href="#a4z5lCYx8g"/><g><use fill-opacity="0" stroke="#000" stroke-opacity="1" stroke-width=".6" opacity="1" xlink:href="#a4z5lCYx8g"/></g></g><g><use fill="#383534" fill-opacity="1" opacity="1" xlink:href="#d7gcMHe9a"/></g><g><use fill="#fff" fill-opacity="1" opacity="1" xlink:href="#cEkLBfXQ2"/><g><use fill-opacity="0" stroke="#000" stroke-opacity="0" stroke-width="1" opacity="1" xlink:href="#cEkLBfXQ2"/></g></g><g><use fill="#fff" fill-opacity="1" opacity="1" xlink:href="#e6OueaG6D"/><g><use fill-opacity="0" stroke="#000" stroke-opacity="0" stroke-width="1" opacity="1" xlink:href="#e6OueaG6D"/></g></g><g><use fill="#383534" fill-opacity="1" opacity="1" xlink:href="#aFwGek678"/><g><use fill-opacity="0" stroke="#000" stroke-opacity="0" stroke-width="1" opacity="1" xlink:href="#aFwGek678"/></g></g><g><use fill="#000" fill-opacity="1" opacity="1" xlink:href="#b6BLYDoNX"/><g><use fill-opacity="0" stroke="#000" stroke-opacity="0" stroke-width="1" opacity="1" xlink:href="#b6BLYDoNX"/></g></g><g><use fill="#383534" fill-opacity="1" opacity="1" xlink:href="#b1lQyv4T0F"/><g><use fill-opacity="0" stroke="#000" stroke-opacity="0" stroke-width="1" opacity="1" xlink:href="#b1lQyv4T0F"/></g></g><g><use fill="#383534" fill-opacity="1" opacity="1" xlink:href="#a7JVV3XhP"/><g><use fill-opacity="0" stroke="#000" stroke-opacity="0" stroke-width="1" opacity="1" xlink:href="#a7JVV3XhP"/></g></g></g></g></svg>