<?xml version="1.0" encoding="UTF-8" standalone="no"?>
<svg
   xmlns:dc="http://purl.org/dc/elements/1.1/"
   xmlns:cc="http://creativecommons.org/ns#"
   xmlns:rdf="http://www.w3.org/1999/02/22-rdf-syntax-ns#"
   xmlns:svg="http://www.w3.org/2000/svg"
   xmlns="http://www.w3.org/2000/svg"
   xmlns:sodipodi="http://sodipodi.sourceforge.net/DTD/sodipodi-0.dtd"
   xmlns:inkscape="http://www.inkscape.org/namespaces/inkscape"
   inkscape:version="1.0 (4035a4fb49, 2020-05-01)"
   sodipodi:docname="python.svg"
   id="svg853"
   version="1.1"
   width="512pt"
   viewBox="0 0 512 512"
   height="512pt">
  <metadata
     id="metadata859">
    <rdf:RDF>
      <cc:Work
         rdf:about="">
        <dc:format>image/svg+xml</dc:format>
        <dc:type
           rdf:resource="http://purl.org/dc/dcmitype/StillImage" />
        <dc:title></dc:title>
      </cc:Work>
    </rdf:RDF>
  </metadata>
  <defs
     id="defs857" />
  <sodipodi:namedview
     inkscape:current-layer="layer1"
     inkscape:window-maximized="1"
     inkscape:window-y="99"
     inkscape:window-x="-8"
     inkscape:cy="281.97822"
     inkscape:cx="438.22619"
     inkscape:zoom="0.76508705"
     showgrid="false"
     id="namedview855"
     inkscape:window-height="837"
     inkscape:window-width="1600"
     inkscape:pageshadow="2"
     inkscape:pageopacity="0"
     guidetolerance="10"
     gridtolerance="10"
     objecttolerance="10"
     borderopacity="1"
     bordercolor="#666666"
     pagecolor="#ffffff" />
  <g
     style="display:inline;opacity:1"
     inkscape:label="real"
     id="layer1"
     inkscape:groupmode="layer">
    <path
       sodipodi:nodetypes="cssccssssssssssssssssssssssssssssssssssssssscsscssssssscscssssssscssssssscssssssssssssssssssscssssssssssssssssssssssssssssssssssssssssssssssssssssssssssssssc"
       id="path872"
       d="m 281.53544,348.55167 c -3.16173,-0.20987 -18.24533,-1.21109 -12.01921,-0.79781 1.0016,0.0665 -3.00481,0.85295 -3.00481,-0.19946 0,-0.78929 1.5024,0.0997 2.25361,0.1496 1.5024,0.0997 3.0048,0.19947 4.5072,0.29917 5.50882,0.36567 11.01762,0.73133 16.52644,1.09699 13.11113,0.8703 -1.29716,-0.6744 5.25839,1.13836 4.05024,1.11998 9.33831,0.61985 13.52163,0.89754 7.08309,0.47016 13.99015,0.13932 21.03364,0.60687 4.97147,0.32999 9.4848,0.67876 14.27283,0.1581 6.57808,-0.71532 13.70434,2.06162 20.28244,1.3463 5.63188,-0.61241 11.53474,-0.20953 17.27762,-0.43173 4.08474,-0.15806 14.50724,2.19636 18.02883,1.19671 3.72548,-1.05752 10.57388,-0.88672 15.02402,-1.37064 1.2962,-0.14096 3.19461,0.55685 4.50721,0.29917 7.25026,-1.42322 13.70377,-1.90076 21.03365,-3.33963 1.65673,-0.32521 3.02405,-1.64772 4.5072,-2.06873 7.50138,-2.12936 14.23137,-3.37473 21.03365,-6.49685 1.10617,-0.50771 0.99667,-0.98108 1.50239,-1.47888 0.35413,-0.3486 1.14829,0.44828 1.5024,0.0997 0.17707,-0.17429 -0.17705,-0.615 0,-0.78929 0.2504,-0.2465 2.0032,-0.39325 2.2536,-0.63972 0.17707,-0.17429 -0.17705,-0.61502 0,-0.7893 0.62601,-0.61619 1.62762,-0.81282 2.25361,-1.42902 0.36699,-0.36124 1.53001,-3.08465 3.0048,-4.53636 1.34205,-1.32102 4.3162,-2.17499 5.25842,-3.59746 0.27779,-0.41938 -0.27755,-1.15906 0,-1.57861 0.0129,-0.0195 5.06204,-6.49646 5.06204,-6.49646 0.45076,-0.87673 2.07101,-2.89986 1.69877,-3.3157 -0.35412,-0.39557 -1.14829,0.29588 -1.50241,-0.0997 -0.35411,-0.39559 0.35412,-1.18302 0,-1.5786 -0.2504,-0.27973 -1.00159,-0.59269 -0.75119,-0.83917 0.17705,-0.17425 0.57414,0.22418 0.75119,0.0499 0.35412,-0.34858 -0.35411,-1.23004 0,-1.57861 0.17707,-0.17425 0.57414,0.22419 0.75121,0.0499 0.65243,-0.64222 1.61432,-2.49596 2.2536,-3.79691 1.34707,-2.74139 5.03749,-7.64158 3.82983,-10.25954 -2.22976,-4.83374 2.05147,-8.56296 -0.0738,-13.17021 -1.0016,-2.17129 0.7512,0.31296 0.7512,-0.73943 0,-0.37208 -0.59283,-0.49586 -0.7512,-0.83917 -0.30178,-0.6542 -0.17739,-4.00208 0,-4.73582 0.85842,-3.55088 0.7512,-7.15951 0.7512,-11.00036 0,-2.17193 -2.05578,-5.28797 -0.7512,-7.94287 0.74044,-1.50685 1.5024,-1.85103 1.5024,-3.8468 0,-0.2631 0.25041,0.806 0,0.7893 -0.70824,-0.047 1.0016,-0.98591 1.5024,-1.47886 1.26544,-1.24563 -0.0456,-4.59751 -0.0456,-4.59751 0.44075,0.22531 0.1408,-4.42439 0.1408,-4.42439 0,0 -0.57414,4.23108 -0.75119,4.03329 -0.4102,-0.45824 2.65987,-6.19103 2.15838,-6.75125 -0.17705,-0.19783 -0.57414,0.1479 -0.75119,-0.0499 -0.0956,-0.10678 0.49712,-10.75027 0.75119,-11.00036 0.17706,-0.17425 -1.11545,0.36499 -0.93839,0.1907 0.8461,-0.83286 0.93839,-3.90036 0.93839,-4.92648 0,-0.89564 -1.15882,-4.4289 -0.704,-4.87661 0.17706,-0.17425 0.61041,2.1619 0.61041,2.1619 0,0 -0.50756,-6.5407 -0.5632,-6.90331 l -1.88003,-12.25286 -2.72158,-11.6288 c -0.0605,-0.25851 -0.52724,0.0826 -0.75121,-0.0499 -0.25991,-0.1538 -3.6843,-4.90502 -3.756,-4.98512 -0.35412,-0.39566 -1.14829,0.29578 -1.50241,-0.0998 -0.62599,-0.6993 -0.87639,-1.76833 -1.5024,-2.46764 -0.0173,-0.0193 -3.12526,-1.1233 -3.756,-1.82791 -0.17706,-0.1978 0.17705,-0.59152 0,-0.78931 -1.03243,-1.15332 -3.09642,-0.8761 -3.75601,-2.61721 -0.17706,-0.1978 0.17706,-0.59152 0,-0.78931 -0.98895,-1.10476 -4.17055,-3.65182 -5.25841,-4.29556 -1.0477,-0.61995 -2.7083,-0.41865 -3.75601,-1.03862 -1.48906,-0.88114 -3.05605,-2.18956 -4.50721,-2.66708 -4.02552,-1.32463 -12.48823,-1.46999 -15.77523,-3.41504 -2.85217,-1.68774 -24.40339,-0.7629 -29.29685,-1.94467 -12.29604,-2.96947 -27.9475,-2.96774 -40.56486,-3.48191 -8.76499,-0.35718 -17.52804,-0.63727 -26.29205,-0.95592 25.53344,1.83916 0.86728,1.32532 0.86728,1.32532 -0.51839,-0.71476 -0.97685,-27.7684 -1.65863,-29.81373 -0.11796,-0.3539 -0.62451,-0.45768 -0.79134,-0.79135 -0.2389,-0.47779 0.36581,-2.00822 0,-2.37403 -0.18652,-0.18652 2.82513,13.41637 2.63861,13.22985 -1.74831,-1.74832 -4.02592,-18.37851 -5.01265,-20.35195 -0.32172,-0.64345 -1.2553,-0.65477 -0.79134,-1.58269 0.75452,-1.50905 0.34228,-5.09035 0.79134,-5.53941 1.63732,-1.63732 -0.064,2.50204 1.58269,-0.79135 0.9111,-1.8222 1.82133,-7.43617 0.79135,-9.49613 -0.45499,-0.90998 -1.58269,-2.8318 -1.58269,-3.95673 0,-2.11617 1.58269,-5.125971 1.58269,-7.122098 0,-0.373044 -0.62452,-0.457685 -0.79135,-0.791345 -0.59292,-1.18585 2.24748,-3.291932 0.79135,-4.748068 -0.18652,-0.186521 -0.60483,0.186522 -0.79135,0 -0.53888,-0.53888 0.1749,-4.048468 0,-4.748067 -0.41007,-1.640284 -1.08515,-3.255459 -1.58269,-4.748068 -0.99768,-2.993041 -3.95672,-6.636261 -3.95672,-10.287481 0,-0.07464 -0.6186,-11.799237 -0.48013,-12.214653 0.39061,-1.171829 -0.75458,-2.486739 -0.75458,-2.486739 l 0.58567,6.688644 c 0.0488,0.557431 1.36445,-3.367426 1.36445,-3.367426 0.22044,-0.10185 -1.95012,-3.321218 -3.0531,-4.777895 -0.82068,-1.083849 2.81574,5.910911 2.64891,5.410421 -0.28908,-0.867227 -0.64026,-5.069381 -1.10256,-5.870589 0,0 -2.77799,-4.764624 -3.95673,-7.122102 -0.72844,-1.456877 -1.64559,-0.125812 -2.37403,-1.582689 -0.49731,-0.994626 -1.09386,-2.525293 -2.37404,-3.165379 -0.47186,-0.235933 -1.20964,0.373044 -1.58268,0 -0.18653,-0.186522 0.18652,-0.604823 0,-0.791345 -0.33161,-0.331607 -1.89444,-0.551543 -2.37404,-0.791344 -1.16814,-0.584069 -0.38889,-2.056977 -0.79134,-2.374034 l -4.23502,-3.336398 c -0.137,-0.107929 -3.01041,-2.079688 -2.88709,-2.203015 0.18653,-0.186521 0.79135,0.263782 0.79135,0 0,-0.373043 -0.4183,-0.791344 -0.79135,-0.791344 -0.26378,0 0,1.055126 0,0.791344 0,-0.791344 -1.58268,-3.956723 -1.58268,-3.956723 -0.18652,-0.18653 -1.40282,-0.07504 -1.58934,-0.261563 -0.51766,-0.51766 -2.26376,-1.217498 -3.15873,-2.112471 -0.18652,-0.186521 0.18652,-0.604823 0,-0.791344 -0.39567,-0.395673 -1.97836,0.395672 -2.37404,0 -0.18652,-0.186522 0.18653,-0.604823 0,-0.791345 -0.54828,-0.548287 -3.40843,-0.243058 -3.95672,-0.791345 -0.18652,-0.186521 0.26378,-0.791344 0,-0.791344 -0.26378,0 0.26378,0.791344 0,0.791344 -0.88812,0 -1.36568,-1.365678 -1.58269,-1.582689 -0.21321,-0.213213 -2.89988,-0.262925 -3.95672,-0.791345 -1.22808,-0.614036 -4.10606,-0.313561 -5.53941,-0.791344 -2.86112,-0.953707 -7.28638,-0.08213 -10.28748,-1.58269 -2.35094,-1.175467 -7.58809,0 -10.28749,0 -5.59923,0 -10.75243,-0.791344 -16.61823,-0.791344 -7.66559,0 -37.50625,-1.426165 -41.94127,0.791344 -2.50839,1.254195 -13.73166,-0.434628 -17.40958,0.791345 -4.41746,1.472486 -8.67334,2.089285 -12.66152,4.748068 -2.93326,1.95551 -4.7755,6.344476 -7.91344,7.913446 -0.23594,0.117967 -0.60482,-0.186521 -0.79135,0 -0.18652,0.186522 0.18653,0.604823 0,0.791345 -0.26378,0.263782 -2.11025,0.527563 -2.37403,0.791345 -0.18652,0.186521 0.18652,0.604823 0,0.791344 -1.27634,1.276342 -6.44633,2.605171 -7.91345,5.539413 -0.55649,1.112986 -3.25846,9.403056 -2.37403,10.28748 0.18652,0.186522 0.60482,-0.186521 0.79134,0 0.22166,0.221658 0.16188,3.632975 0,3.956723 -0.68039,1.360785 -0.90229,2.595939 -1.58269,3.956724 -0.41511,0.830232 0.63162,3.325102 0,3.956723 -0.18652,0.186522 -0.60482,-0.186522 -0.79134,0 -0.37304,0.373043 0.37304,1.209646 0,1.582689 -0.18652,0.186522 -0.60482,-0.186522 -0.79134,0 -0.76888,0.768871 -2.38998,3.197268 -3.16538,4.748068 -0.50239,1.004764 0.35057,2.904994 0,3.956723 -0.11797,0.3539 -0.79135,0.418301 -0.79135,0.791345 0,0.83415 0.58904,1.564789 0.79135,2.374034 0.63466,2.53866 -1.14543,6.413935 0,8.704791 2.38474,4.769477 3.07455,10.015007 4.74806,15.035548 1.55096,4.652855 -1.85202,10.304135 -3.16537,14.244205 -0.43356,1.30066 0.61446,3.51914 0,4.74807 -0.45296,0.90591 -1.16252,0.46918 -0.79135,1.58269 0.53353,1.60059 1.23297,1.39889 0.79135,3.16537 -0.54293,2.17172 -0.65273,4.47084 -1.58269,6.33076 -0.15538,0.31075 3.29932,16.88613 3.95672,18.20093 0.63308,1.26615 -0.63308,3.48191 0,4.74807 1.41317,2.82635 -0.0276,7.10829 3.16538,8.70479"
       style="fill:none;fill-opacity:1;stroke:#488f84;stroke-width:29.7638;stroke-linecap:round;stroke-linejoin:round;stroke-miterlimit:4;stroke-dasharray:none;stroke-opacity:1" />
    <path
       sodipodi:nodetypes="cssssssssssssssssssssssssssssssssssssssssssssssssssssssssssssssssssssssssssssssssc"
       id="path876"
       d="m 355.62917,364.80988 c 1.51465,6.85833 0.99596,10.78966 2.68642,17.60297 0.39394,1.58774 -1.03662,2.05707 -0.32853,3.53688 1.28889,2.69359 1.33017,9.39075 -0.10024,10.88544 -0.91141,0.95236 -2.05551,44.71261 -2.58617,45.82163 -1.57589,3.29339 2.65279,-32.79491 1.08585,-31.15758 -0.024,0.0251 -1.51464,5.96284 -1.51464,6.33076 0,5.36679 4.11397,10.39465 1.51464,15.82689 -0.67873,1.41844 1.82423,0.46784 0.75732,1.58268 -1.24032,1.29606 -1.94342,-2.02723 -1.94342,-1.80914 0,0.26378 -2.02168,2.41397 -1.84317,2.60049 0.50487,0.52757 0.99543,-4.46902 1.50031,-3.94145 0.37866,0.39567 0.39298,6.71116 0.77163,7.10683 0.46439,0.48524 -1.07886,3.50137 -1.51463,3.95673 -1.56692,1.63731 1.9188,-1.01605 0.34287,2.27734 -1.23995,2.59131 -1.3831,5.436 -2.61483,8.01014 -2.02344,4.22871 -7.70015,6.46341 -10.60246,9.49613 -1.05843,1.10599 -2.16731,3.84738 -3.02928,4.74807 -1.33325,1.39316 -4.28201,2.71915 -6.05855,3.95672 -1.13476,0.7905 -1.61264,2.47643 -2.27195,3.16537 -1.38226,1.44437 -3.21061,2.56352 -4.54392,3.95673 -0.89641,0.93668 -1.6521,4.24401 -2.27195,5.53941 -1.16945,2.44398 -3.85766,3.23964 -5.30124,4.74807 -0.1785,0.18652 0.17851,0.60483 0,0.79134 -0.54929,0.57398 -6.49129,1.30007 -7.57319,1.58269 -6.73154,1.7585 -13.70909,2.98775 -20.44761,4.74807 -1.84401,0.48172 -4.25486,-0.62824 -6.05856,0 -0.33867,0.11797 -0.41863,0.67338 -0.75731,0.79135 -1.74583,0.60809 -4.43088,-0.8504 -6.05855,0 -4.02865,2.10483 -14.16475,0.87091 -18.93298,1.58269 -4.12589,0.61589 -9.75107,-0.22242 -13.63174,0.79134 -0.34634,0.0905 -0.438,0.62451 -0.75732,0.79134 -3.00625,1.57067 -22.95293,-0.65447 -26.50616,-1.58268 -1.66569,-0.43514 -3.61493,0.35241 -5.30124,0 -4.41113,-0.92187 -8.66846,-1.7004 -12.87441,-3.16538 -0.71846,-0.25024 -1.5535,0.25025 -2.27197,0 -3.68823,-1.28464 -7.24688,-2.9949 -10.60246,-4.74807 -0.45158,-0.23593 -1.15763,0.37304 -1.51463,0 -0.39199,-0.4096 -1.12266,-1.96444 -1.51464,-2.37403 -0.63111,-0.65946 -2.39818,-0.13189 -3.02928,-0.79135 -0.37866,-0.39567 -0.37866,-1.18702 -0.75732,-1.58269 -0.357,-0.37304 -1.06306,0.23594 -1.51464,0 -0.8199,-0.42837 -5.07988,-6.52566 -5.30123,-7.91344 -0.2075,-1.30097 0.89251,-3.02412 0,-3.95673 -0.37866,-0.39567 -1.13598,-0.39567 -1.51463,-0.79134 -0.35701,-0.37305 0.357,-1.20965 0,-1.58269 -0.17851,-0.18653 -0.57883,0.18652 -0.75733,0 -0.357,-0.37304 0.22579,-1.11083 0,-1.58269 -1.57588,-3.29339 0.0523,0.84597 -1.51464,-0.79135 -1.26554,-1.32239 -2.23289,-3.87509 -3.02927,-5.5394 -0.44401,-0.92793 0.44943,-0.93924 0.75732,-1.5827 0.47046,-0.9832 -3.09441,-3.56009 -2.36049,-4.32693 0.33658,-0.3517 1.43049,0.96191 0.75731,-0.44493 -0.88512,-1.84977 -0.77757,-8.79467 -2.18342,-10.26368 -1.258,-1.31453 -1.50004,-0.76085 -2.27195,-2.37404 -1.38643,-2.89745 -0.27051,-3.12987 -1.62339,-5.95719 -0.11289,-0.23593 0.28725,-4.14377 0.10875,-4.33029 -0.35701,-0.37304 1.73212,-2.44082 1.73212,-2.96838 0,-2.59254 -1.14232,-3.97868 0.53983,-5.73641 0.1785,-0.18652 0.57883,0.18652 0.75733,0 0.65291,-0.68225 -0.45164,-3.01285 0,-3.95672 0.66002,-1.37937 1.18492,-2.9608 0.75731,-4.74807 -0.82006,-3.42761 -2.20681,-18.32167 -1.16435,-20.50025 0.6279,-1.31222 -2.25443,-5.59966 -1.01907,-5.01978 3.17052,1.48826 1.63513,-2.97244 2.03427,-3.38952 1.36348,-1.42473 -1.9884,-5.25871 -1.36549,-5.90961 0.1785,-0.18653 0.57883,0.18651 0.75733,0 0.62952,-0.65781 0.27303,-4.52735 0.75731,-5.53942 0.53453,-1.11709 1.4908,-1.17456 2.27196,-1.58269 3.56759,-1.86394 2.42572,-5.0694 3.78659,-7.91344 0.15966,-0.33366 0.67074,-0.42944 0.75732,-0.79135 0.62762,-2.62329 -0.98455,-3.3238 -1.51464,-5.53941 -0.2449,-1.02362 0.31931,-2.1644 0,-3.16538 -0.54142,-1.69726 -1.49967,-3.1341 -2.27195,-4.74806 -1.09434,-2.28702 0.77653,-6.27053 0,-8.7048 -0.5189,-1.62665 -1.34228,-3.70566 -0.75732,-5.53941 0.90993,-2.85244 0.81939,-5.79885 1.51464,-8.70479 1.51558,-6.33469 4.60013,-14.80057 3.02927,-21.36631 -1.39063,-5.81246 -2.63918,-11.41476 -3.78659,-17.40958 -0.28242,-1.47556 -1.28464,-3.30611 -1.51464,-4.74807 -0.50229,-3.14913 0.85092,-6.72196 1.51464,-9.49613 0.35426,-1.48071 12.10333,-21.36631 7.57318,-21.36631"
       style="fill:none;stroke:#488f84;stroke-width:29.1169;stroke-linecap:round;stroke-linejoin:miter;stroke-miterlimit:4;stroke-dasharray:none;stroke-opacity:1" />
    <path
       sodipodi:nodetypes="cssssssssscssssssssssssssc"
       id="path878"
       d="m 163.017,257.97836 c 19.8777,-1.87754 41.35288,2.33344 60.93353,-1.58269 4.78881,-0.95777 10.18743,0.60601 15.03555,0 9.21564,-1.15196 18.56331,-1.23232 27.69707,-2.37404 8.11537,-1.01442 17.15657,0 25.32303,0 9.69165,0 -2.33563,0.33366 5.53941,-0.79134 8.62485,-1.23213 18.17376,0 26.90571,0 2.55456,0 25.70731,0.40707 26.11438,0 0.18652,-0.18652 -0.18652,-0.60483 0,-0.79134 0.81954,-0.81955 1.6292,-8.94657 2.35278,-10.39374 0.12471,-0.24941 0.8356,4.08597 0.8126,4.06298 -1.63732,-1.63733 0.064,2.50204 -1.58269,-0.79135 -0.77426,-1.54852 -0.79135,-3.65185 -0.79135,-5.53941 0,-0.67581 0.76588,-8.65386 0.79135,-8.70479 0.33366,-0.66732 1.24903,-0.91537 1.58269,-1.5827 0.63634,-1.27269 0.61531,-9.05684 0,-10.28748 -0.60242,-1.20483 -0.29954,1.46138 -0.29954,-0.44929 0,-0.7461 -0.0341,-2.84011 0.29954,-3.50743 1.08242,-2.16484 -0.47998,-3.13952 0,-5.53941 0.33087,-1.65436 -0.20952,-4.69254 -0.8126,-6.50177 -0.38875,-1.16626 -0.39087,-1.06535 -0.77009,-2.20302 -0.25025,-0.75074 0.55957,-1.81447 0,-2.37404 -0.58306,-0.58305 0.63031,-34.72682 1.73457,-35.48387 0,0 -0.15188,19.53141 -0.15188,16.4916 0,-0.4959 -1.38083,-3.35114 -1.58269,-3.95672 -1.14933,-3.44799 0,-8.98282 0,-12.66151"
       style="fill:none;stroke:#488f84;stroke-width:29.7638;stroke-linecap:round;stroke-linejoin:miter;stroke-miterlimit:4;stroke-dasharray:none;stroke-opacity:1" />
    <path
       sodipodi:nodetypes="csssssssscssssssssscssssssssssssssssssssssssssssssssssssssssssssssssssc"
       id="path882"
       d="m 264.30911,159.85162 c 0.52757,0.52756 2.11026,1.05512 1.58269,1.58269 -0.74608,0.74608 -2.11025,0 -3.16537,0 -2.38775,0 -12.66713,-0.78854 -14.24421,0 -1.98387,0.99193 -3.9016,0.79135 -6.33076,0.79135 h -19.78361 c -2.96622,0 -6.5947,0.58028 -9.49614,0 -0.81795,-0.16359 -1.53988,-0.79135 -2.37403,-0.79135 -0.58984,0 -1.00431,0.67567 -1.5827,0.79135 -10.93408,2.18681 -33.00194,-7.49293 -38.77588,-0.79135 -7.38588,1.05513 -14.76223,2.17932 -22.15765,3.16538 -8.3472,1.11295 -17.68186,0 -26.11437,0 -12.5776,0 -24.610773,0.79134 -37.193203,0.79134 -8.379673,0 -17.198747,-2.03107 -25.323029,0 -2.956223,0.73906 -7.59974,-1.34387 -10.28748,0 -1.893789,0.9469 -4.521035,-0.11352 -6.330757,0.79135 -0.235934,0.11796 0.186522,0.60482 0,0.79134 -0.527563,0.52756 -2.637816,-0.52756 -3.165379,0 -0.186522,0.18652 0.186522,0.60482 0,0.79134 -0.36581,0.36581 -1.896241,-0.23889 -2.374034,0 -2.542408,1.27121 -8.650401,2.31965 -10.28748,3.95673 -1.940104,1.9401 -6.858344,8.70486 -7.913447,11.87017 -1.357975,4.07392 1.797191,7.48444 0,11.07882 -0.316537,0.63308 0.316538,1.74096 0,2.37404 -0.124973,0.24994 -1.530823,2.32216 -1.582689,2.37403 -0.186522,0.18652 0.940772,0.0826 0.940772,0.34642 0,1.05513 0.114354,-1.66533 -0.940772,0.44492 -0.517558,1.03512 0.458797,6.3175 1.633618,7.49232 0.186521,0.18652 -1.82014,1.02595 -1.633618,1.21248 0.373044,0.37304 -0.235933,1.11082 0,1.58269 0.16683,0.33366 0.624515,0.45768 0.791345,0.79134 0.06251,0.12501 -1.015315,14.01621 -1.436379,15.2794 -0.642106,1.92632 0.675675,6.81697 -0.14631,8.46094 -0.581078,1.16215 1.043856,2.71128 0.421136,3.95672 -0.605365,1.21073 -0.840566,2.32652 -0.421136,3.16538 0.633075,1.26615 -0.633076,3.48192 0,4.74807 1.015169,2.03034 0.615494,4.79108 1.334764,6.94889 0.762228,2.28668 1.039269,6.43471 1.039269,8.878 0,2.64603 -1.10182,7.2925 0,9.49614 0.166831,0.33366 -0.767559,1.45757 -0.767559,1.83061 0,0.58984 0.910615,-0.0288 0.767559,0.54342 -0.371632,1.48653 0.298177,6.08484 1.039269,7.56703 0.333661,0.66732 0.307487,1.22131 0.543421,1.92911 0.250245,0.75073 -0.3539,1.66623 0,2.37403 0.16683,0.33366 0.624514,0.45769 0.791344,0.79135 0.235934,0.47186 -0.373043,1.20964 0,1.58269 0.104774,0.10477 0.78839,1.31057 -0.916986,3.01594 -0.527563,0.52757 1.444549,1.9959 0.916986,2.52347 -0.327114,0.32711 -1.864313,2.60868 -0.468707,4.00429 0.186522,0.18652 -1.300504,2.93129 -1.113982,3.11781 0.548287,0.54829 0.243058,3.40844 0.791345,3.95672 1.122413,1.12242 2.955574,2.16423 3.956723,3.16538 1.300061,1.30006 1.702458,4.07649 3.165379,5.53941 0.518119,0.51812 1.828756,0.49214 2.374033,1.58269 0.235934,0.47187 -0.373043,1.20965 0,1.58269 0.186522,0.18652 0.604823,-0.18652 0.791345,0 0.562014,0.56202 1.481787,2.27313 2.374034,3.16538 1.192416,1.19242 2.858215,2.06687 3.956723,3.16538 0.395673,0.39567 0.395673,1.18702 0.791345,1.58269 0.331608,0.33161 1.894431,0.55154 2.374034,0.79134 1.827326,0.91367 3.617606,3.31612 5.539412,3.95673 1.539621,0.5132 2.105532,1.88475 3.634086,3.4133 0.373043,0.37304 1.532283,0.17038 1.905327,0.54342 0.186522,0.18652 0.604823,-0.18652 0.791345,0 0.673953,0.67395 1.083827,2.52027 2.374033,3.16538 2.688239,1.34412 5.712589,2.95932 8.704792,3.95672 0.902271,0.30076 1.471762,1.28193 2.374033,1.58269 6.380268,2.12676 13.82586,2.26945 20.574961,3.95672 3.97164,0.99291 8.610613,-0.67515 12.661515,0 7.071579,1.1786 14.171879,0.92866 21.366309,1.58269 14.66395,1.33309 35.28674,1.58269 45.10664,1.58269"
       style="fill:none;stroke:#488f84;stroke-width:29.7638;stroke-linecap:round;stroke-linejoin:miter;stroke-miterlimit:4;stroke-dasharray:none;stroke-opacity:1" />
    <path
       id="path920"
       d="m 219.64824,76.007576 c -2.18828,0.404252 -4.38405,0.75861 -6.56486,1.212755 -0.51744,0.107756 -1.0668,0.652873 -1.48239,0.970209 -0.3966,0.30282 -0.66226,0.182277 -1.05885,0.485105 -1.07363,0.819779 -2.85745,2.907299 -3.38833,4.123367 -0.15769,0.361233 -0.26657,0.853197 -0.42354,1.212762 -0.21814,0.499694 0.38112,1.067403 0.21178,1.455307 -0.0976,0.223619 -0.35681,0.395423 -0.21178,0.727656 0.0447,0.102265 0.21178,0.128208 0.21178,0.242553 0,0.114338 -0.18756,0.131625 -0.21178,0.242552 -0.10612,0.486187 0.20259,1.476335 0,1.940412 -0.0447,0.102265 -0.21177,0.128206 -0.21177,0.242545 0,0.180789 0.17349,0.309717 0.21177,0.485105 0.23065,1.056704 0.008,1.959095 0.42354,2.91062 0.14119,0.323398 -0.14117,0.889356 0,1.212754 0.19509,0.446871 0.56988,1.380373 0.84709,1.697859 0.29451,0.337319 1.72922,1.25291 2.11769,1.697859 0.34956,0.400375 0.66371,1.002725 1.05886,1.455314 0.32599,0.373374 0.94462,0.596828 1.27062,0.970202 0.36335,0.416175 0.97188,1.355708 1.27062,1.697858 0.0131,0.68297 0.47746,0.0618 0.63531,0.24255 0.10588,0.12128 0.10588,0.36384 0.21177,0.4851 0.28083,0.32166 0.91846,0.52599 1.27061,0.72767 0.11322,0.0648 0.31034,0.42027 0.42355,0.48509 0.18941,0.10848 0.42986,-0.0588 0.6353,0 2.2119,0.63336 4.00078,0.72766 6.35311,0.72766 1.997,0 5.28589,0.25211 6.77664,-1.45531 2.13547,-2.445865 3.03756,-7.026435 2.1177,-10.187158 -0.19615,-0.673963 0.43846,-1.991695 0.63531,-2.668068 0.067,-0.230104 -0.0947,-0.510709 0,-0.72765 0.12176,-0.278915 0.42353,-0.867968 0.42353,-1.212762 0,-0.114338 -0.16711,-0.14028 -0.21176,-0.242552 -0.24214,-0.554652 -0.167,-1.404025 -0.63531,-1.940412 -0.14257,-0.163284 -0.26762,-0.127929 -0.42354,-0.485097 -0.1467,-0.33605 -0.24857,-0.91215 -0.42354,-1.212762 -0.24431,-0.419743 -0.64942,-0.759985 -0.84708,-1.212754 -0.37585,-0.860973 -0.8623,-2.442946 -1.48239,-3.153174 -1.22307,-1.400846 -3.1851,-1.824029 -4.65895,-2.66806 -0.16941,-0.09703 -0.46589,0.09703 -0.63531,0 -0.33548,-0.192134 -0.74466,-0.06266 -1.05885,-0.242553 -0.0631,-0.03614 0.0631,-0.206393 0,-0.242552 -0.12627,-0.07235 -0.2896,0.05116 -0.42353,0 -1.11701,-0.426459 -1.62697,-0.644858 -2.75302,0 z"
       style="fill:#488f84;fill-opacity:1;stroke:#488f84;stroke-width:0.701997px;stroke-linecap:round;stroke-linejoin:miter;stroke-opacity:1" />
    <path
       style="display:inline;fill:#488f84;fill-opacity:1;stroke:#488f84;stroke-width:0.701997px;stroke-linecap:round;stroke-linejoin:miter;stroke-opacity:1"
       d="m 290.59427,408.17245 c -2.18828,0.40425 -4.38405,0.75861 -6.56486,1.21275 -0.51744,0.10776 -1.0668,0.65288 -1.48239,0.97021 -0.3966,0.30282 -0.66226,0.18228 -1.05885,0.48511 -1.07363,0.81978 -2.85745,2.9073 -3.38833,4.12336 -0.15769,0.36124 -0.26657,0.8532 -0.42354,1.21277 -0.21814,0.49969 0.38112,1.0674 0.21178,1.4553 -0.0976,0.22362 -0.35681,0.39543 -0.21178,0.72766 0.0447,0.10226 0.21178,0.12821 0.21178,0.24255 0,0.11434 -0.18756,0.13163 -0.21178,0.24255 -0.10612,0.48619 0.20259,1.47634 0,1.94042 -0.0447,0.10226 -0.21177,0.1282 -0.21177,0.24254 0,0.18079 0.17349,0.30972 0.21177,0.48511 0.23065,1.0567 0.008,1.95909 0.42354,2.91062 0.14119,0.32339 -0.14117,0.88935 0,1.21275 0.19509,0.44687 0.56988,1.38037 0.84709,1.69786 0.29451,0.33732 1.72922,1.25291 2.11769,1.69786 0.34956,0.40037 0.66371,1.00272 1.05886,1.45531 0.32599,0.37338 0.94462,0.59683 1.27062,0.97021 0.36335,0.41617 0.97188,1.3557 1.27062,1.69785 0.0131,0.68297 0.47746,0.0618 0.63531,0.24255 0.10588,0.12128 0.10588,0.36384 0.21177,0.4851 0.28083,0.32166 0.91846,0.52599 1.27061,0.72767 0.11322,0.0648 0.31034,0.42027 0.42355,0.48509 0.18941,0.10848 0.42986,-0.0588 0.6353,0 2.2119,0.63336 4.00078,0.72766 6.35311,0.72766 1.997,0 5.28589,0.25211 6.77664,-1.45531 2.13547,-2.44586 3.03756,-7.02643 2.1177,-10.18716 -0.19615,-0.67396 0.43846,-1.99169 0.63531,-2.66806 0.067,-0.23011 -0.0947,-0.51071 0,-0.72765 0.12176,-0.27892 0.42353,-0.86797 0.42353,-1.21277 0,-0.11433 -0.16711,-0.14028 -0.21176,-0.24255 -0.24214,-0.55465 -0.167,-1.40402 -0.63531,-1.94041 -0.14257,-0.16328 -0.26762,-0.12793 -0.42354,-0.4851 -0.1467,-0.33605 -0.24857,-0.91215 -0.42354,-1.21276 -0.24431,-0.41974 -0.64942,-0.75998 -0.84708,-1.21275 -0.37585,-0.86098 -0.8623,-2.44295 -1.48239,-3.15318 -1.22307,-1.40084 -3.1851,-1.82403 -4.65895,-2.66806 -0.16941,-0.097 -0.46589,0.097 -0.63531,0 -0.33548,-0.19213 -0.74466,-0.0627 -1.05885,-0.24255 -0.0631,-0.0361 0.0631,-0.20639 0,-0.24255 -0.12627,-0.0724 -0.2896,0.0512 -0.42353,0 -1.11701,-0.42646 -1.62697,-0.64486 -2.75302,0 z"
       id="path920-0" />
  </g>
</svg>
